 <svg version="1.0" xmlns="http://www.w3.org/2000/svg" width="700.000000pt" height="700.000000pt" viewBox="0 0 700.000000 700.000000" preserveAspectRatio="xMidYMid meet">
<metadata>
Created by potrace 1.12, written by Peter Selinger 2001-2015
</metadata>
<g transform="translate(0.000000,700.000000) scale(0.100000,-0.100000)" fill="#000000" stroke="none">
<path d="M1559 4909 c-164 -13 -395 -84 -529 -163 -119 -69 -181 -119 -288
-230 -156 -164 -203 -240 -311 -509 -73 -182 -107 -302 -153 -552 -15 -79 -15
-625 -1 -685 51 -214 99 -332 188 -472 214 -333 603 -444 972 -278 299 136
475 444 476 835 1 312 -141 623 -328 717 -202 102 -411 140 -570 103 -86 -20
-198 -83 -315 -175 -44 -35 -56 -37 -65 -11 -16 52 77 390 140 503 71 130 179
275 245 331 68 57 212 141 315 183 80 33 265 64 381 64 113 0 267 -29 349 -65
284 -126 496 -369 536 -614 5 -31 9 -454 9 -942 0 -675 3 -888 12 -897 19 -19
302 -17 321 2 8 8 17 43 21 78 3 35 5 403 5 818 0 839 1 849 65 978 19 39 56
104 81 143 53 83 238 272 305 315 136 84 267 143 370 164 164 34 368 30 428
-7 34 -21 22 -56 -42 -123 -108 -112 -254 -355 -316 -525 -39 -106 -84 -337
-100 -513 -20 -218 21 -562 95 -787 54 -165 94 -236 205 -363 210 -242 492
-333 810 -263 126 28 211 66 305 136 204 153 304 319 384 640 64 254 72 583
21 815 -51 233 -140 464 -223 584 -75 107 -171 231 -229 292 -38 39 -68 79
-68 87 0 25 43 48 107 57 87 11 359 -31 488 -77 307 -109 517 -286 668 -563
87 -158 154 -464 143 -655 -23 -445 -197 -781 -513 -991 -73 -49 -113 -82
-113 -93 0 -22 91 -158 149 -224 40 -44 48 -48 77 -44 87 14 286 186 441 379
156 196 260 466 289 753 34 346 -2 700 -96 925 -81 196 -167 324 -328 492
-242 252 -535 387 -932 429 -109 12 -309 7 -415 -11 -78 -12 -204 -47 -284
-77 -83 -32 -133 -32 -206 0 -121 52 -370 97 -541 97 -242 0 -503 -76 -704
-205 -91 -59 -261 -227 -318 -315 -23 -36 -49 -75 -57 -87 -22 -32 -60 -30
-81 5 -121 196 -305 374 -464 449 -192 91 -304 125 -479 142 -114 12 -189 12
-332 0z m3161 -601 c140 -94 311 -288 388 -441 50 -99 113 -283 138 -400 38
-179 16 -506 -48 -685 -87 -247 -188 -376 -347 -444 -67 -28 -87 -32 -171 -32
-140 -1 -200 24 -305 129 -118 117 -192 273 -242 505 -14 68 -18 131 -18 315
0 208 2 238 23 315 77 285 151 437 298 617 151 183 176 193 284 121z m-3461
-993 c189 -60 289 -202 298 -425 12 -278 -109 -492 -324 -570 -55 -20 -76 -22
-165 -18 -91 4 -111 9 -166 37 -146 74 -248 224 -277 404 -14 90 -14 107 0
185 35 189 141 313 329 384 97 36 195 37 305 3z"></path>
</g>
</svg>