 <svg version="1.0" xmlns="http://www.w3.org/2000/svg" width="700.000000pt" height="700.000000pt" viewBox="0 0 700.000000 700.000000" preserveAspectRatio="xMidYMid meet">
<metadata>
Created by potrace 1.12, written by Peter Selinger 2001-2015
</metadata>
<g transform="translate(0.000000,700.000000) scale(0.100000,-0.100000)" fill="#000000" stroke="none">
<path d="M3240 5773 c-307 -30 -353 -38 -537 -84 -107 -27 -206 -55 -221 -63
-15 -8 -61 -24 -102 -36 -219 -64 -507 -270 -687 -492 -149 -184 -232 -362
-274 -588 -19 -101 -21 -138 -16 -305 6 -201 25 -312 66 -379 11 -17 30 -59
44 -93 24 -60 54 -102 169 -242 71 -86 236 -223 377 -312 100 -63 282 -136
421 -168 204 -48 315 -54 1020 -56 424 -1 671 -5 720 -13 41 -6 119 -18 173
-26 107 -16 255 -70 321 -116 74 -50 155 -145 192 -224 31 -64 37 -91 45 -185
14 -162 1 -243 -61 -388 -84 -194 -152 -271 -374 -419 -129 -87 -249 -138
-410 -175 -72 -17 -162 -38 -201 -47 -58 -14 -125 -17 -395 -17 -218 0 -350 4
-400 13 -285 48 -608 173 -789 303 -31 22 -106 72 -168 110 -61 38 -140 95
-176 127 -155 137 -196 161 -253 150 -24 -4 -148 -169 -240 -318 -41 -67 -45
-80 -41 -120 4 -39 13 -52 61 -97 31 -29 80 -67 110 -85 29 -18 132 -86 228
-150 95 -64 228 -144 293 -178 66 -34 135 -71 153 -82 35 -22 121 -53 392
-144 127 -42 213 -63 375 -92 204 -36 216 -37 455 -36 240 0 249 1 450 38 113
21 236 49 275 62 38 12 100 30 137 38 196 45 509 221 703 396 49 44 92 80 96
80 4 0 34 33 66 72 198 245 272 439 292 762 14 219 -20 520 -69 616 -13 25
-35 74 -49 110 -63 152 -283 370 -447 441 -27 12 -83 36 -125 55 -96 43 -268
80 -479 104 -249 29 -335 32 -990 34 -576 2 -609 3 -696 23 -124 29 -267 87
-335 137 -253 185 -305 262 -339 495 -15 101 -9 166 28 291 58 197 221 359
489 486 255 121 321 140 638 186 241 35 501 31 721 -10 89 -17 188 -41 220
-55 33 -13 93 -34 134 -46 41 -13 95 -33 120 -46 25 -12 72 -30 105 -40 92
-26 214 -97 450 -261 28 -19 93 -75 145 -123 126 -116 130 -118 183 -89 44 24
142 140 189 224 15 27 37 61 49 75 29 36 36 107 15 147 -25 48 -222 220 -349
304 -185 124 -246 160 -418 246 -166 83 -244 110 -539 187 -69 18 -150 40
-180 49 -115 34 -575 58 -760 39z"></path>
</g>
</svg>