 <svg version="1.0" xmlns="http://www.w3.org/2000/svg" width="700.000000pt" height="700.000000pt" viewBox="0 0 700.000000 700.000000" preserveAspectRatio="xMidYMid meet">
<metadata>
Created by potrace 1.12, written by Peter Selinger 2001-2015
</metadata>
<g transform="translate(0.000000,700.000000) scale(0.100000,-0.100000)" fill="#000000" stroke="none">
<path d="M3195 5850 c-82 -11 -188 -31 -235 -44 -47 -14 -112 -30 -145 -36
-116 -23 -395 -146 -490 -216 -16 -12 -46 -30 -65 -39 -48 -25 -150 -104 -245
-190 -44 -40 -94 -84 -112 -99 -17 -14 -75 -80 -128 -146 -134 -167 -158 -199
-190 -255 -15 -28 -49 -81 -75 -120 -60 -88 -74 -117 -123 -240 -76 -194 -127
-340 -141 -404 -47 -211 -58 -271 -71 -411 -38 -392 2 -742 127 -1130 35 -108
112 -292 138 -330 10 -14 29 -49 44 -78 40 -78 190 -304 268 -403 144 -183
364 -369 583 -493 265 -150 463 -229 660 -265 61 -11 137 -27 170 -36 157 -42
538 -40 712 4 43 11 116 27 163 36 173 33 452 144 614 244 103 63 220 143 257
175 20 17 65 53 100 80 35 27 79 63 98 80 71 66 211 237 263 322 30 49 78 127
107 174 140 227 270 560 311 796 11 65 23 125 26 133 14 39 34 283 34 411 0
159 -9 259 -40 450 -11 69 -25 154 -31 190 -13 84 -84 304 -149 464 -51 126
-115 243 -195 360 -23 34 -61 90 -85 126 -117 174 -301 364 -445 462 -33 22
-71 51 -85 62 -30 26 -124 83 -200 121 -30 15 -66 36 -79 46 -13 11 -51 28
-85 38 -33 11 -83 29 -109 41 -27 12 -92 30 -145 41 -53 11 -126 28 -162 39
-196 57 -577 75 -845 40z m602 -595 c98 -16 178 -35 210 -49 28 -13 76 -31
106 -40 70 -20 222 -97 307 -156 172 -117 269 -208 386 -360 215 -282 302
-454 394 -785 45 -162 63 -390 50 -624 -12 -203 -16 -233 -60 -386 -57 -195
-172 -448 -270 -590 -77 -113 -288 -339 -405 -434 -122 -99 -332 -225 -420
-252 -38 -12 -111 -34 -161 -50 -110 -34 -261 -51 -449 -51 -191 0 -291 15
-453 66 -294 94 -456 199 -712 461 -239 245 -396 511 -484 815 -48 169 -58
224 -77 433 -10 111 -10 161 0 250 15 143 64 425 86 502 36 125 229 489 299
565 18 19 61 71 95 115 90 114 209 219 391 342 52 35 248 133 267 133 6 0 47
16 91 35 113 50 313 83 504 84 113 1 184 -5 305 -24z"></path>
</g>
</svg>