 <svg version="1.0" xmlns="http://www.w3.org/2000/svg" width="700.000000pt" height="700.000000pt" viewBox="0 0 700.000000 700.000000" preserveAspectRatio="xMidYMid meet">
<metadata>
Created by potrace 1.12, written by Peter Selinger 2001-2015
</metadata>
<g transform="translate(0.000000,700.000000) scale(0.100000,-0.100000)" fill="#000000" stroke="none">
<path d="M1305 4490 c-79 -8 -300 -61 -337 -81 -11 -6 -43 -19 -72 -29 -119
-41 -323 -208 -420 -344 -163 -230 -250 -435 -315 -741 -59 -279 -65 -819 -12
-1033 10 -42 22 -99 26 -127 3 -27 27 -113 52 -190 125 -383 344 -714 621
-937 97 -78 160 -107 197 -90 22 10 195 232 226 290 17 31 -10 66 -82 109
-124 72 -282 235 -384 393 -91 143 -175 329 -189 420 -4 25 -16 72 -26 105
-20 65 -33 157 -51 358 -11 126 -6 241 22 557 9 105 39 235 84 364 83 233 242
405 470 503 104 45 255 62 401 45 137 -16 220 -57 322 -159 87 -88 129 -156
174 -281 55 -157 60 -222 64 -822 3 -644 6 -713 39 -896 56 -316 177 -534 412
-739 252 -221 639 -292 973 -179 175 59 288 124 414 240 146 133 207 209 264
329 38 81 83 82 123 3 37 -73 103 -150 221 -260 194 -181 310 -252 523 -323
273 -90 690 -36 1010 132 204 107 407 279 503 428 58 89 178 347 214 459 68
211 114 522 102 686 -28 379 -70 582 -170 813 -15 34 -43 98 -62 142 -69 159
-239 381 -427 554 -100 92 -190 157 -310 221 -44 24 -90 52 -103 64 l-23 20
-38 -42 c-40 -44 -161 -276 -161 -310 0 -30 41 -65 195 -165 255 -168 367
-299 518 -608 109 -223 167 -533 154 -824 -9 -217 -88 -490 -189 -657 -130
-213 -332 -392 -529 -467 -137 -53 -374 -75 -540 -51 -200 29 -446 196 -598
405 -93 128 -144 222 -181 335 l-35 105 -5 1070 c-3 589 -7 1071 -8 1072 -19
19 -317 26 -370 9 -12 -4 -27 -17 -34 -29 -9 -17 -11 -267 -10 -1002 2 -1124
-1 -1218 -48 -1355 -99 -288 -266 -491 -471 -570 -105 -40 -267 -58 -376 -42
-113 18 -202 64 -287 148 -110 110 -169 223 -220 414 -39 146 -46 274 -46 812
0 277 -5 543 -11 600 -12 125 -68 358 -108 453 -109 258 -287 484 -446 566
-84 43 -125 58 -270 97 -123 34 -239 44 -360 32z"></path>
</g>
</svg>