 <svg version="1.0" xmlns="http://www.w3.org/2000/svg" width="700.000000pt" height="700.000000pt" viewBox="0 0 700.000000 700.000000" preserveAspectRatio="xMidYMid meet">
<metadata>
Created by potrace 1.12, written by Peter Selinger 2001-2015
</metadata>
<g transform="translate(0.000000,700.000000) scale(0.100000,-0.100000)" fill="#000000" stroke="none">
<path d="M1180 4364 c-91 -8 -152 -18 -187 -32 -28 -12 -79 -28 -114 -37 -198
-51 -435 -261 -592 -522 -87 -144 -128 -247 -186 -473 -15 -57 -36 -212 -55
-402 -8 -87 -21 -160 -30 -179 -21 -41 -22 -193 -2 -240 12 -30 30 -131 67
-386 51 -353 262 -746 564 -1049 85 -85 231 -184 272 -184 36 0 52 15 127 116
33 43 75 99 93 123 43 58 45 104 4 125 -114 60 -300 225 -389 348 -157 215
-225 393 -298 788 -25 133 -14 535 21 730 33 185 78 334 144 470 86 179 297
337 507 380 187 39 358 20 478 -52 137 -83 208 -169 268 -330 50 -130 47 -122
65 -233 13 -79 17 -230 23 -725 8 -731 6 -713 112 -1038 46 -142 118 -253 248
-382 149 -150 280 -224 484 -275 101 -25 120 -27 245 -22 330 12 572 124 808
371 78 82 111 125 146 194 51 97 66 116 90 106 9 -3 42 -53 74 -111 69 -126
139 -212 253 -311 143 -124 263 -183 445 -222 274 -58 513 -42 810 56 190 62
242 91 455 250 200 150 254 208 348 375 32 57 78 138 102 178 102 179 213 492
239 676 6 39 20 124 31 190 26 153 38 508 21 640 -38 295 -114 523 -234 700
-59 86 -190 218 -266 268 -36 24 -115 61 -176 83 l-110 39 -200 0 -200 0 -95
-34 c-167 -59 -301 -142 -396 -242 -92 -99 -144 -189 -210 -364 -83 -220 -62
-673 41 -892 40 -85 107 -192 156 -247 71 -81 197 -157 354 -214 99 -36 101
-36 265 -36 l165 -1 98 38 c103 39 168 82 254 166 52 51 93 66 109 39 12 -19
6 -119 -11 -173 -8 -28 -15 -60 -15 -72 0 -84 -152 -412 -254 -550 -74 -100
-185 -211 -259 -259 -40 -26 -90 -59 -112 -74 -117 -80 -289 -133 -485 -150
-239 -21 -403 19 -591 146 -95 64 -225 188 -268 254 -9 14 -38 56 -64 93 -61
83 -111 202 -138 321 -20 89 -20 117 -18 1086 2 740 -1 1001 -9 1017 -18 33
-64 41 -212 39 -146 -2 -174 -10 -191 -53 -6 -15 -9 -416 -9 -1050 1 -999 0
-1027 -20 -1136 -12 -62 -32 -137 -45 -167 -13 -30 -27 -66 -30 -79 -10 -33
-88 -152 -151 -231 -80 -100 -165 -158 -299 -204 -84 -29 -99 -31 -235 -31
-142 0 -146 1 -211 31 -153 73 -241 172 -326 368 -92 212 -94 230 -103 956 -7
553 -9 614 -28 715 -29 155 -64 259 -138 409 -131 267 -229 384 -382 457 -260
124 -375 146 -642 123z m4829 -414 c305 -73 474 -335 440 -680 -13 -122 -40
-197 -102 -280 -148 -196 -302 -259 -564 -233 -88 8 -120 16 -170 42 -155 78
-241 214 -265 421 -34 294 77 563 284 684 44 26 196 63 263 65 17 1 68 -8 114
-19z"></path>
</g>
</svg>