 <svg version="1.0" xmlns="http://www.w3.org/2000/svg" width="700.000000pt" height="700.000000pt" viewBox="0 0 700.000000 700.000000" preserveAspectRatio="xMidYMid meet">
<metadata>
Created by potrace 1.12, written by Peter Selinger 2001-2015
</metadata>
<g transform="translate(0.000000,700.000000) scale(0.100000,-0.100000)" fill="#000000" stroke="none">
<path d="M1362 3980 c-231 -43 -421 -110 -541 -192 -203 -136 -331 -273 -456
-483 -16 -27 -38 -63 -47 -80 -74 -123 -174 -398 -207 -565 -52 -261 -64 -406
-58 -672 4 -208 6 -231 36 -348 68 -272 136 -397 321 -582 80 -81 110 -104
174 -133 116 -54 212 -75 346 -75 135 0 216 16 325 62 117 50 189 100 285 197
133 134 199 260 225 432 9 57 22 145 30 194 9 59 11 102 5 125 -5 19 -16 87
-26 150 -29 198 -105 360 -221 472 -58 56 -208 137 -323 173 -123 40 -267 45
-388 15 -110 -27 -231 -95 -314 -178 -68 -66 -84 -62 -82 21 2 66 47 265 80
353 57 155 191 363 303 472 106 103 194 158 334 209 181 65 296 86 442 80 129
-5 166 -16 326 -91 197 -92 342 -259 449 -516 52 -126 51 -105 53 -1082 2
-915 2 -917 23 -945 21 -28 21 -28 155 -31 156 -3 186 5 194 52 3 17 6 456 8
976 l3 945 32 104 c18 57 53 147 79 200 39 80 60 110 132 182 142 142 269 195
491 206 177 8 295 -24 462 -123 102 -61 192 -144 270 -248 66 -90 92 -140 140
-284 l33 -97 5 -938 5 -939 24 -19 c20 -17 40 -19 157 -19 126 0 134 1 161 24
l28 24 5 984 5 983 33 95 c77 228 194 370 389 472 139 73 183 83 363 82 139
-1 165 -4 250 -29 52 -15 122 -43 156 -61 79 -44 204 -151 244 -209 72 -105
147 -260 169 -354 5 -20 18 -70 29 -111 28 -106 46 -347 39 -515 -10 -213 -28
-297 -116 -538 -39 -105 -178 -338 -263 -440 -48 -57 -134 -125 -203 -160 -27
-14 -60 -36 -73 -50 -23 -24 -23 -26 -6 -58 9 -19 33 -55 53 -81 20 -26 53
-71 74 -101 22 -30 54 -63 71 -72 l33 -18 135 102 c196 147 332 310 430 518
105 224 157 367 188 519 11 55 26 124 33 154 15 70 15 540 -1 630 -34 198 -84
395 -122 475 -153 331 -316 522 -543 636 -110 56 -167 76 -303 105 -174 37
-339 43 -473 15 -202 -41 -374 -105 -487 -182 -119 -80 -242 -219 -304 -343
-19 -36 -40 -66 -47 -66 -28 0 -53 21 -74 62 -19 37 -39 67 -136 202 -93 130
-321 260 -558 317 -240 58 -521 17 -798 -116 -152 -73 -317 -228 -400 -379
-31 -56 -54 -86 -65 -86 -24 0 -61 50 -116 156 -78 150 -262 317 -413 374
-193 73 -469 97 -671 60z m-332 -1669 c185 -16 287 -101 366 -306 24 -62 27
-83 27 -185 0 -99 -4 -129 -30 -211 -32 -106 -85 -208 -133 -256 -86 -88 -235
-141 -366 -129 -89 7 -189 42 -244 86 -67 53 -144 153 -174 227 -61 149 -59
371 4 500 45 91 149 195 234 233 102 47 164 55 316 41z"></path>
<path d="M0 30 c0 -7 1173 -10 3500 -10 2327 0 3500 3 3500 10 0 7 -1173 10
-3500 10 -2327 0 -3500 -3 -3500 -10z"></path>
</g>
</svg>