 <svg version="1.0" xmlns="http://www.w3.org/2000/svg" width="700.000000pt" height="700.000000pt" viewBox="0 0 700.000000 700.000000" preserveAspectRatio="xMidYMid meet">
<metadata>
Created by potrace 1.12, written by Peter Selinger 2001-2015
</metadata>
<g transform="translate(0.000000,700.000000) scale(0.100000,-0.100000)" fill="#000000" stroke="none">
<path d="M2335 5099 c-169 -16 -519 -95 -656 -148 -101 -39 -248 -113 -329
-166 -63 -41 -243 -191 -325 -271 -143 -140 -308 -365 -376 -514 -11 -25 -36
-76 -55 -114 -19 -37 -34 -74 -34 -81 0 -7 -13 -41 -29 -76 -17 -35 -35 -93
-41 -129 -6 -36 -20 -94 -30 -130 -23 -76 -37 -226 -46 -470 -7 -196 15 -513
42 -615 8 -33 24 -100 35 -149 10 -48 27 -102 38 -120 11 -17 27 -57 36 -88
18 -64 126 -281 175 -354 159 -236 279 -368 468 -519 103 -83 178 -130 232
-145 26 -8 33 -4 75 43 54 60 185 239 210 286 29 57 21 69 -124 166 -131 87
-258 201 -342 305 -175 218 -302 506 -334 752 -8 62 -19 140 -25 173 -15 88
-12 337 4 425 8 41 20 112 26 158 6 46 19 102 29 125 10 24 24 67 30 97 14 64
74 202 108 248 13 17 31 49 40 69 27 66 100 158 231 290 181 183 337 287 532
353 47 16 110 38 140 49 93 33 288 69 440 81 135 11 152 10 240 -9 149 -33
162 -63 72 -168 -78 -93 -136 -170 -161 -218 -12 -22 -39 -67 -61 -100 -59
-91 -129 -235 -195 -405 -23 -59 -83 -292 -90 -350 -4 -30 -17 -93 -28 -140
-20 -77 -22 -111 -21 -370 0 -228 3 -302 17 -370 10 -47 24 -130 33 -185 13
-92 45 -203 96 -345 11 -30 28 -77 38 -105 21 -59 96 -201 120 -230 10 -11 25
-35 35 -54 27 -53 121 -176 194 -253 77 -82 181 -155 295 -208 248 -115 595
-102 815 32 166 101 256 179 356 312 76 99 125 171 125 181 0 5 11 26 24 46
25 37 62 134 98 254 11 39 33 113 49 165 26 87 48 215 79 472 8 60 11 173 7
300 -7 306 -58 596 -148 848 -11 30 -30 82 -41 115 -12 33 -29 71 -38 85 -10
14 -23 42 -29 63 -7 21 -23 50 -35 65 -13 15 -29 38 -36 52 -68 134 -142 234
-267 359 -24 25 -46 55 -49 68 -8 31 19 71 54 80 15 4 133 8 262 8 232 0 237
-1 375 -34 77 -18 172 -46 212 -62 130 -51 356 -170 433 -227 222 -165 447
-475 545 -752 13 -36 31 -83 40 -105 9 -21 30 -116 46 -210 36 -215 37 -333 4
-579 -27 -196 -26 -194 -60 -271 -12 -27 -27 -72 -34 -100 -7 -27 -20 -63 -30
-80 -10 -16 -24 -46 -31 -65 -13 -34 -93 -171 -129 -220 -10 -14 -36 -51 -57
-84 -104 -156 -199 -243 -374 -341 -138 -77 -151 -97 -107 -166 37 -59 159
-218 212 -276 40 -44 53 -53 72 -48 33 8 122 63 163 100 19 18 51 42 70 55 67
46 186 145 226 190 174 193 293 371 334 495 7 22 25 65 40 95 15 30 35 78 43
106 8 28 25 70 36 92 12 23 29 77 37 119 9 42 25 96 35 121 31 73 43 218 43
537 1 309 -12 477 -40 545 -9 19 -24 72 -35 118 -10 45 -30 104 -43 130 -13
26 -26 61 -30 77 -4 17 -36 89 -70 160 -34 72 -69 146 -76 165 -23 58 -105
178 -189 278 -92 109 -362 342 -466 403 -25 14 -53 33 -62 41 -17 16 -86 48
-223 103 -372 152 -876 211 -1235 145 -163 -31 -397 -92 -488 -129 -44 -17
-113 -13 -157 9 -51 26 -307 94 -430 114 -190 32 -395 41 -555 25z m1118 -788
c43 -29 215 -209 274 -285 18 -22 53 -72 79 -111 25 -38 60 -90 76 -114 16
-24 38 -66 49 -95 11 -28 27 -61 35 -74 22 -33 81 -207 120 -352 28 -103 36
-155 45 -295 12 -184 0 -448 -25 -560 -40 -181 -58 -250 -75 -283 -10 -20 -26
-62 -36 -92 -18 -57 -33 -85 -121 -235 -80 -137 -159 -211 -281 -261 -77 -31
-211 -33 -306 -4 -75 23 -166 86 -219 151 -85 105 -195 292 -212 364 -4 17
-21 60 -37 96 -15 37 -35 109 -44 160 -8 52 -19 110 -25 129 -31 107 -44 573
-20 713 23 132 74 353 88 381 8 17 25 61 38 100 13 38 30 79 37 90 7 12 21 40
30 63 41 105 209 333 335 456 103 101 125 107 195 58z"></path>
</g>
</svg>