 <svg version="1.0" xmlns="http://www.w3.org/2000/svg" width="700.000000pt" height="700.000000pt" viewBox="0 0 700.000000 700.000000" preserveAspectRatio="xMidYMid meet">
<metadata>
Created by potrace 1.12, written by Peter Selinger 2001-2015
</metadata>
<g transform="translate(0.000000,700.000000) scale(0.100000,-0.100000)" fill="#000000" stroke="none">
<path d="M4245 5460 c-197 -40 -385 -105 -548 -189 -72 -38 -188 -117 -195
-133 -2 -4 -26 -24 -53 -44 -51 -37 -212 -242 -252 -319 -11 -22 -30 -53 -42
-70 -33 -46 -101 -176 -109 -210 -4 -16 -20 -57 -36 -90 -16 -33 -34 -93 -40
-133 -7 -41 -23 -106 -36 -145 -17 -50 -31 -130 -45 -257 -18 -173 -20 -246
-18 -1109 l2 -925 -27 -23 c-14 -12 -43 -27 -64 -32 -23 -7 -275 -9 -687 -8
-593 3 -653 4 -682 20 -18 9 -37 26 -43 38 -8 14 -11 511 -10 1717 2 1173 -1
1705 -9 1724 -22 57 -47 63 -240 60 -194 -4 -234 -13 -251 -58 -12 -30 -13
-3753 -2 -3884 11 -125 -322 -111 2668 -111 2840 0 2624 -4 2641 59 5 15 8
572 8 1237 0 1272 -3 1357 -45 1493 -11 34 -26 106 -35 159 -10 62 -28 124
-50 174 -19 42 -35 80 -35 84 0 21 -113 233 -172 322 -98 149 -133 191 -207
257 -36 32 -73 66 -81 76 -68 82 -348 224 -520 264 -36 8 -105 25 -155 37 -80
20 -119 23 -340 25 -137 1 -268 -1 -290 -6z m539 -521 c187 -24 423 -157 561
-316 74 -85 192 -315 215 -418 6 -25 19 -69 30 -98 37 -96 55 -245 79 -652 13
-211 1 -1588 -13 -1616 -6 -12 -24 -31 -39 -43 -27 -20 -35 -20 -1073 -24
-752 -2 -1055 0 -1079 8 -19 6 -46 25 -60 42 l-26 31 4 926 c4 889 5 933 26
1091 14 103 33 197 51 250 16 47 36 112 45 145 9 33 20 65 25 70 4 6 40 65 79
133 39 68 88 143 109 167 142 162 393 293 597 314 111 10 347 5 469 -10z"></path>
</g>
</svg>