 <svg version="1.0" xmlns="http://www.w3.org/2000/svg" width="700.000000pt" height="700.000000pt" viewBox="0 0 700.000000 700.000000" preserveAspectRatio="xMidYMid meet">
<metadata>
Created by potrace 1.12, written by Peter Selinger 2001-2015
</metadata>
<g transform="translate(0.000000,700.000000) scale(0.100000,-0.100000)" fill="#000000" stroke="none">
<path d="M3614 6078 c-243 -13 -666 -110 -889 -203 -139 -58 -346 -170 -445
-242 -106 -76 -307 -263 -410 -379 -232 -263 -354 -460 -456 -734 -14 -36 -38
-95 -54 -131 -21 -46 -35 -100 -46 -180 -9 -63 -25 -157 -36 -209 -11 -51 -26
-159 -34 -240 -16 -176 -18 -668 -3 -950 9 -184 17 -241 64 -500 3 -14 12 -77
20 -141 8 -64 26 -155 40 -201 13 -47 32 -130 41 -184 9 -54 29 -134 45 -176
16 -43 36 -119 44 -170 15 -83 46 -173 92 -265 27 -56 97 -61 204 -15 25 11
98 36 162 56 126 40 143 52 154 119 7 45 -10 144 -48 277 -16 58 -36 150 -45
204 -8 55 -26 143 -39 196 -14 53 -29 141 -35 196 -6 54 -24 167 -40 249 -37
194 -55 479 -55 860 1 310 18 517 55 666 11 42 27 109 35 150 29 141 132 370
221 495 12 16 29 45 39 64 51 100 295 356 445 466 216 160 386 239 640 301 91
22 135 26 325 30 190 5 241 2 367 -16 242 -35 424 -91 534 -164 65 -43 180
-159 204 -206 108 -213 95 -494 -30 -656 -128 -167 -303 -265 -627 -354 -193
-52 -275 -61 -635 -69 -396 -9 -376 7 -377 -305 -1 -205 6 -242 53 -272 23
-15 67 -18 364 -21 500 -5 552 -10 812 -78 172 -44 202 -55 320 -117 117 -61
274 -188 344 -279 58 -76 111 -183 127 -258 7 -34 9 -113 7 -201 -4 -143 -5
-148 -46 -254 -90 -232 -277 -426 -475 -493 -96 -33 -291 -58 -387 -50 -273
24 -630 116 -832 216 -135 67 -177 74 -223 39 -17 -14 -61 -92 -122 -216 -83
-167 -95 -198 -90 -229 3 -20 13 -46 20 -58 55 -83 613 -259 1002 -317 189
-28 302 -33 460 -20 216 17 376 65 595 177 177 90 362 272 488 481 113 187
203 544 205 813 1 110 -3 158 -15 200 -9 30 -24 90 -33 133 -31 149 -210 461
-324 565 -67 61 -216 169 -283 206 -37 21 -113 54 -170 74 -78 28 -106 43
-117 63 -25 44 0 75 135 164 272 180 340 252 432 450 63 137 70 162 82 307 24
267 -29 494 -170 728 -116 193 -418 412 -662 480 -37 10 -72 21 -77 24 -15 10
-338 74 -431 86 -146 19 -290 25 -416 18z"></path>
</g>
</svg>