 <svg version="1.0" xmlns="http://www.w3.org/2000/svg" width="700.000000pt" height="700.000000pt" viewBox="0 0 700.000000 700.000000" preserveAspectRatio="xMidYMid meet">
<metadata>
Created by potrace 1.12, written by Peter Selinger 2001-2015
</metadata>
<g transform="translate(0.000000,700.000000) scale(0.100000,-0.100000)" fill="#000000" stroke="none">
<path d="M1549 5296 c-97 -34 -330 -230 -478 -400 -97 -111 -93 -106 -162
-217 -124 -199 -157 -269 -225 -478 -36 -112 -79 -254 -94 -315 -140 -554 -84
-1260 145 -1836 102 -257 211 -410 440 -616 163 -147 234 -194 402 -268 196
-86 503 -138 729 -122 97 7 305 53 394 88 205 80 321 158 493 331 144 144 177
188 245 323 46 92 60 107 98 102 23 -3 34 -16 74 -93 25 -50 61 -113 80 -140
44 -64 168 -204 234 -264 122 -110 374 -250 531 -294 157 -45 209 -50 463 -44
235 4 238 5 362 40 290 83 559 255 748 478 76 89 218 301 266 395 154 304 266
832 266 1252 0 275 -47 582 -131 857 -91 295 -341 725 -543 933 -156 161 -334
282 -411 282 -67 -1 -64 2 -266 -249 -32 -40 -59 -83 -59 -95 0 -34 26 -63 91
-101 198 -116 388 -303 509 -500 94 -153 110 -185 158 -305 75 -189 101 -281
119 -435 24 -195 24 -653 0 -820 -34 -242 -117 -510 -201 -650 -67 -110 -174
-250 -241 -314 -224 -212 -409 -272 -796 -258 -204 8 -287 24 -403 81 -231
113 -419 334 -529 621 -41 108 -42 114 -61 241 -15 97 -16 285 -13 2506 0 126
-28 143 -242 151 -171 5 -213 -2 -239 -41 -16 -24 -17 -111 -22 -1292 l-5
-1265 -28 -118 c-48 -199 -139 -403 -240 -532 -46 -60 -185 -179 -268 -230
-33 -20 -112 -54 -176 -76 -97 -32 -139 -41 -243 -49 -196 -15 -344 0 -493 50
-130 44 -182 72 -292 161 -147 119 -215 208 -320 424 -87 181 -124 303 -164
545 -34 204 -44 352 -38 545 10 344 56 542 201 865 108 241 157 318 277 440
61 62 266 220 339 261 42 24 70 62 70 96 -1 66 -252 365 -305 363 -5 -1 -26
-7 -46 -14z"></path>
</g>
</svg>