<?xml version="1.0" standalone="no"?>
<!DOCTYPE svg PUBLIC "-//W3C//DTD SVG 20010904//EN"
 "http://www.w3.org/TR/2001/REC-SVG-20010904/DTD/svg10.dtd">
<svg version="1.0" xmlns="http://www.w3.org/2000/svg"
 width="100.000000pt" height="84.000000pt" viewBox="0 0 100.000000 84.000000"
 preserveAspectRatio="xMidYMid meet">
<metadata>
Created by potrace 1.16, written by Peter Selinger 2001-2019
</metadata>
<g transform="translate(0.000000,84.000000) scale(0.100000,-0.100000)"
fill="#000000" stroke="none">
<path d="M430 749 c-55 -22 -106 -92 -118 -161 l-8 -43 -57 -7 c-120 -15 -161
-57 -161 -164 0 -72 36 -144 84 -169 51 -26 124 -16 181 26 13 10 22 7 46 -11
65 -47 175 -33 220 29 32 44 53 109 53 166 l0 55 55 0 c92 0 145 -41 145 -111
0 -53 -40 -99 -87 -99 -19 0 -44 5 -55 11 -18 10 -24 8 -39 -12 -10 -13 -19
-27 -19 -30 0 -3 18 -14 40 -24 105 -47 218 21 228 138 10 119 -53 183 -192
196 l-71 6 -7 48 c-17 120 -135 197 -238 156z m131 -87 c24 -21 32 -38 36 -75
l6 -47 -117 0 -118 0 7 33 c9 39 41 93 63 107 34 19 90 11 123 -18z m-251
-246 c0 -30 5 -67 11 -83 9 -25 7 -31 -16 -51 -38 -32 -100 -28 -127 9 -28 37
-35 102 -14 134 21 32 48 44 104 44 l42 1 0 -54z m290 -8 c-8 -70 -30 -122
-59 -138 -26 -13 -77 -13 -103 1 -26 14 -54 80 -63 147 l-7 52 119 0 119 0 -6
-62z"/>
</g>
</svg>
