 <svg version="1.0" xmlns="http://www.w3.org/2000/svg" width="700.000000pt" height="700.000000pt" viewBox="0 0 700.000000 700.000000" preserveAspectRatio="xMidYMid meet">
<metadata>
Created by potrace 1.12, written by Peter Selinger 2001-2015
</metadata>
<g transform="translate(0.000000,700.000000) scale(0.100000,-0.100000)" fill="#000000" stroke="none">
<path d="M2245 5398 c-80 -9 -264 -62 -340 -97 -22 -11 -75 -35 -118 -55 -177
-80 -289 -173 -422 -351 -137 -182 -203 -310 -276 -526 -65 -194 -96 -353
-114 -569 -27 -320 -16 -561 35 -815 67 -324 174 -590 337 -831 160 -237 450
-506 562 -521 52 -7 55 -5 158 134 120 162 128 177 113 213 -7 16 -29 40 -49
52 -76 46 -179 129 -253 204 -188 194 -306 390 -374 626 -74 260 -100 463 -91
730 13 394 72 656 199 881 56 99 105 160 201 246 198 178 365 240 642 241 200
0 358 -38 488 -117 82 -51 228 -192 283 -275 95 -142 165 -344 184 -530 6 -62
10 -504 10 -1160 l0 -1059 25 -24 c24 -25 27 -25 194 -25 165 0 171 1 198 24
l28 24 0 1119 c1 1246 -2 1184 71 1402 46 140 110 245 217 357 174 183 379
264 667 264 257 0 418 -55 615 -210 139 -109 196 -181 260 -330 130 -298 183
-606 172 -985 -7 -213 -11 -235 -111 -612 -66 -246 -284 -552 -512 -719 -45
-32 -96 -67 -113 -76 -42 -23 -57 -63 -38 -103 21 -44 129 -192 180 -247 61
-67 88 -65 198 8 171 113 409 379 542 605 52 90 129 253 167 359 70 191 131
584 130 840 0 224 -36 581 -70 705 -11 39 -31 112 -45 164 -62 222 -211 471
-397 661 -166 170 -290 241 -590 335 -171 54 -389 69 -583 40 -93 -14 -277
-66 -300 -85 -5 -5 -33 -17 -61 -28 -73 -27 -248 -147 -319 -217 -73 -72 -169
-203 -226 -309 -22 -42 -49 -80 -58 -86 -33 -17 -64 12 -111 102 -118 226
-301 394 -575 530 -65 33 -253 86 -346 98 -90 11 -275 11 -384 -2z"></path>
</g>
</svg>