 <svg version="1.0" xmlns="http://www.w3.org/2000/svg" width="700.000000pt" height="700.000000pt" viewBox="0 0 700.000000 700.000000" preserveAspectRatio="xMidYMid meet">
<metadata>
Created by potrace 1.12, written by Peter Selinger 2001-2015
</metadata>
<g transform="translate(0.000000,700.000000) scale(0.100000,-0.100000)" fill="#000000" stroke="none">
<path d="M5638 5831 c-19 -9 -41 -32 -51 -52 -17 -35 -17 -131 -17 -1792 0
-1106 -3 -1765 -9 -1781 -6 -14 -22 -33 -38 -43 -26 -17 -82 -18 -1060 -18
l-1032 0 -23 22 c-20 20 -21 25 -8 49 8 14 43 58 78 97 174 197 282 503 282
801 0 101 -35 347 -62 431 -25 80 -125 279 -171 343 -45 62 -156 189 -213 243
-111 106 -416 285 -539 318 -163 43 -317 63 -520 68 l-210 5 -160 -40 c-228
-57 -418 -150 -579 -283 -162 -134 -282 -271 -378 -434 -191 -322 -235 -623
-157 -1079 44 -264 217 -609 422 -841 72 -82 224 -222 264 -243 33 -18 94 -14
130 7 31 20 161 185 209 268 44 73 39 84 -78 197 -169 165 -247 265 -327 421
-90 179 -121 308 -121 509 0 57 7 141 15 187 18 102 67 251 99 299 13 19 33
56 46 80 90 179 364 355 615 396 111 19 294 21 398 5 92 -15 297 -82 346 -114
127 -82 159 -107 216 -169 61 -66 136 -184 163 -258 7 -19 24 -80 38 -135 24
-91 26 -113 21 -250 -5 -182 -33 -299 -106 -451 -57 -119 -167 -276 -248 -356
-82 -80 -224 -183 -353 -257 -61 -35 -120 -72 -131 -84 -51 -56 3 -228 87
-272 l40 -21 1761 0 1762 1 28 21 c15 11 33 36 40 55 17 49 17 4039 0 4089
-22 62 -52 71 -256 75 -152 2 -185 0 -213 -14z"></path>
</g>
</svg>