 <svg version="1.0" xmlns="http://www.w3.org/2000/svg" width="700.000000pt" height="700.000000pt" viewBox="0 0 700.000000 700.000000" preserveAspectRatio="xMidYMid meet">
<metadata>
Created by potrace 1.12, written by Peter Selinger 2001-2015
</metadata>
<g transform="translate(0.000000,700.000000) scale(0.100000,-0.100000)" fill="#000000" stroke="none">
<path d="M4565 5168 c-98 -11 -193 -43 -310 -103 -124 -65 -181 -104 -254
-178 -147 -148 -285 -411 -334 -637 -6 -27 -32 -237 -42 -335 -3 -33 -6 -339
-6 -681 0 -341 -4 -627 -9 -634 -4 -7 -28 -16 -51 -19 -60 -9 -1213 -6 -1228
3 -20 12 -12 36 23 71 74 73 154 211 192 328 24 74 27 97 27 242 1 144 -2 170
-26 258 -37 136 -108 259 -211 365 -189 197 -353 283 -611 322 -154 23 -191
27 -224 19 -20 -5 -53 -9 -74 -9 -50 0 -181 -34 -282 -72 -103 -40 -266 -157
-345 -249 -63 -73 -136 -169 -154 -203 -6 -11 -19 -32 -28 -46 -38 -57 -75
-185 -87 -300 -30 -294 51 -605 212 -817 23 -31 51 -68 62 -82 39 -52 194
-198 224 -211 49 -20 78 0 151 101 36 50 76 104 89 120 19 24 21 32 11 44 -7
8 -19 15 -27 15 -8 0 -58 44 -111 98 -96 96 -163 183 -177 232 -4 14 -15 39
-25 55 -25 41 -50 153 -57 255 -6 94 20 239 60 329 24 56 133 196 179 231 178
137 442 180 653 107 208 -72 320 -165 388 -322 35 -81 47 -148 47 -258 0 -141
-24 -253 -75 -347 -48 -88 -61 -109 -93 -148 -60 -73 -275 -237 -384 -293 -49
-25 -49 -47 -1 -138 l37 -71 2122 3 c1662 1 2126 5 2135 14 10 10 12 214 12
910 l0 898 -27 129 c-24 119 -62 259 -89 331 -23 60 -152 262 -218 342 -82 97
-164 163 -256 204 -38 17 -80 37 -94 45 -56 29 -207 74 -284 84 -94 12 -318
11 -430 -2z m409 -364 c141 -26 247 -84 361 -198 78 -79 97 -105 142 -196 61
-125 99 -276 113 -450 5 -63 10 -390 10 -726 0 -570 -1 -613 -18 -634 l-17
-21 -766 0 c-421 0 -773 3 -782 7 -36 13 -39 70 -35 733 4 622 5 650 27 766
37 198 96 353 178 466 48 67 160 160 242 201 124 62 360 85 545 52z"></path>
<path d="M6960 3563 c0 -5 -3 -80 -6 -168 -5 -160 -3 -305 5 -357 1 -4 10 -6
21 -5 19 1 20 8 20 249 0 159 -4 248 -10 248 -5 0 -10 9 -10 20 0 11 -4 20
-10 20 -5 0 -10 -3 -10 -7z"></path>
</g>
</svg>