 <svg version="1.0" xmlns="http://www.w3.org/2000/svg" width="700.000000pt" height="700.000000pt" viewBox="0 0 700.000000 700.000000" preserveAspectRatio="xMidYMid meet">
<metadata>
Created by potrace 1.12, written by Peter Selinger 2001-2015
</metadata>
<g transform="translate(0.000000,700.000000) scale(0.100000,-0.100000)" fill="#000000" stroke="none">
<path d="M1906 4939 c-93 -9 -207 -36 -321 -79 -27 -10 -68 -24 -90 -31 -76
-23 -216 -114 -332 -216 -69 -61 -213 -239 -237 -292 -6 -14 -31 -59 -55 -100
-79 -134 -172 -391 -200 -556 -6 -33 -17 -98 -26 -145 -22 -120 -35 -426 -24
-568 19 -239 104 -481 221 -629 62 -79 185 -193 244 -228 25 -15 86 -40 135
-56 81 -26 103 -29 224 -29 123 0 143 3 232 31 224 71 414 235 490 421 116
287 100 694 -38 935 -57 100 -139 172 -269 236 -129 63 -173 75 -304 84 -187
12 -328 -35 -454 -151 -72 -66 -108 -81 -114 -48 -2 9 0 51 4 94 19 203 174
530 326 690 130 137 374 256 567 278 282 31 441 -9 625 -159 124 -100 193
-190 262 -339 81 -176 78 -128 78 -1082 0 -793 1 -849 18 -869 16 -21 24 -22
167 -19 l149 3 7 25 c4 14 7 413 8 888 l1 863 25 110 c31 133 54 194 107 279
70 113 185 217 292 264 61 27 227 56 319 56 114 0 246 -30 340 -77 112 -58
240 -154 297 -225 64 -80 160 -283 199 -425 42 -148 57 -456 31 -628 -19 -130
-109 -380 -168 -470 -91 -139 -227 -267 -367 -346 -78 -44 -116 -86 -109 -118
17 -70 57 -181 70 -192 11 -9 198 -13 812 -15 925 -4 1364 3 1389 21 21 16 20
-51 22 1476 1 710 -2 1175 -7 1190 -17 44 -31 48 -170 51 -114 2 -135 0 -150
-15 -16 -17 -17 -91 -20 -1176 l-2 -1158 -21 -19 c-20 -18 -47 -19 -613 -20
-325 0 -601 3 -613 8 -33 11 -28 39 13 79 47 46 144 199 176 279 33 80 59 179
89 330 19 97 23 146 22 315 0 272 -24 425 -109 683 -78 240 -319 536 -519 639
-168 87 -338 140 -487 153 -274 24 -518 -40 -758 -198 -66 -43 -195 -173 -230
-231 -70 -118 -80 -131 -98 -131 -26 0 -40 18 -108 140 -138 245 -368 391
-661 420 -112 11 -149 11 -287 -1z m-299 -1588 c39 -10 85 -28 101 -40 57 -40
127 -128 156 -197 26 -59 30 -85 34 -180 5 -134 -5 -188 -60 -312 -49 -112
-111 -181 -203 -227 -55 -28 -70 -30 -188 -33 -123 -4 -130 -3 -185 24 -83 40
-203 159 -237 236 -82 183 -73 383 24 530 53 80 94 122 156 159 95 56 271 74
402 40z"></path>
</g>
</svg>