 <svg version="1.0" xmlns="http://www.w3.org/2000/svg" width="700.000000pt" height="700.000000pt" viewBox="0 0 700.000000 700.000000" preserveAspectRatio="xMidYMid meet">
<metadata>
Created by potrace 1.12, written by Peter Selinger 2001-2015
</metadata>
<g transform="translate(0.000000,700.000000) scale(0.100000,-0.100000)" fill="#000000" stroke="none">
<path d="M3575 5896 c-5 -3 -74 -12 -152 -21 -238 -26 -558 -108 -703 -180
-25 -12 -69 -30 -99 -40 -59 -19 -233 -107 -303 -152 -125 -81 -208 -151 -353
-297 -214 -215 -299 -320 -397 -494 -101 -178 -203 -488 -238 -722 -12 -74
-30 -184 -40 -245 -36 -201 -45 -656 -19 -945 14 -161 74 -573 104 -710 13
-63 31 -162 40 -218 9 -57 28 -147 42 -200 14 -54 38 -151 53 -217 63 -268 96
-304 237 -255 32 11 98 31 148 45 115 34 180 69 196 106 14 35 9 80 -27 239
-14 63 -36 162 -49 220 -13 58 -27 128 -31 155 -3 28 -21 120 -40 205 -18 85
-48 261 -66 390 l-33 235 0 410 c1 403 1 413 28 565 54 303 81 388 202 635 69
142 129 230 240 356 98 111 173 175 305 258 47 30 108 69 135 86 92 59 268
134 385 164 63 16 196 39 295 51 160 20 211 22 460 17 410 -8 630 -36 810
-101 102 -37 260 -143 321 -214 68 -79 89 -143 89 -267 0 -73 -5 -100 -24
-142 -49 -110 -160 -177 -357 -218 -158 -33 -271 -43 -564 -50 -442 -11 -592
-32 -769 -104 -181 -75 -328 -215 -408 -388 -55 -122 -61 -144 -78 -300 -17
-148 -13 -233 16 -378 21 -106 137 -294 231 -376 147 -126 275 -190 473 -236
l150 -35 430 -8 c419 -7 433 -8 538 -34 128 -31 230 -80 291 -139 111 -106 95
-316 -32 -428 -65 -57 -112 -83 -237 -130 -133 -50 -206 -64 -410 -80 -370
-27 -654 18 -960 153 -168 74 -310 147 -368 190 -71 52 -122 58 -161 18 -29
-30 -195 -306 -202 -337 -23 -91 112 -199 408 -327 202 -87 623 -205 841 -235
100 -14 467 -14 577 0 191 23 467 102 615 175 293 144 507 423 555 725 19 116
9 338 -18 416 -50 143 -90 209 -187 310 -126 132 -208 179 -400 228 -180 46
-289 54 -760 55 -423 1 -475 7 -605 67 -110 52 -169 104 -204 184 -54 119 -30
235 65 324 27 26 69 55 92 65 85 38 280 62 642 80 467 23 686 64 891 164 133
65 208 120 310 229 59 64 86 102 119 174 63 134 69 171 62 390 -6 199 -12 231
-67 374 -81 212 -197 365 -347 462 -104 66 -115 72 -295 132 -90 29 -181 60
-203 68 -55 20 -290 62 -460 82 -130 15 -705 31 -730 21z"></path>
</g>
</svg>