 <svg version="1.0" xmlns="http://www.w3.org/2000/svg" width="700.000000pt" height="700.000000pt" viewBox="0 0 700.000000 700.000000" preserveAspectRatio="xMidYMid meet">
<metadata>
Created by potrace 1.12, written by Peter Selinger 2001-2015
</metadata>
<g transform="translate(0.000000,700.000000) scale(0.100000,-0.100000)" fill="#000000" stroke="none">
<path d="M3495 5755 c-16 -2 -115 -9 -220 -15 -213 -12 -257 -19 -400 -61
-260 -77 -456 -150 -610 -227 -78 -39 -313 -207 -414 -296 -50 -45 -199 -214
-276 -312 -45 -58 -125 -202 -145 -259 -10 -28 -27 -70 -39 -94 -12 -23 -31
-79 -42 -124 -12 -45 -32 -107 -46 -137 -15 -33 -33 -101 -43 -170 -10 -63
-26 -156 -35 -207 -14 -83 -16 -223 -13 -1375 3 -1204 4 -1285 21 -1315 36
-67 -144 -62 2240 -60 l2165 2 26 24 c15 15 29 43 36 75 8 36 10 429 8 1356
l-4 1305 -27 145 c-16 80 -50 213 -77 295 -26 83 -52 166 -58 185 -18 60 -84
203 -119 255 -121 182 -132 197 -295 389 -62 74 -372 316 -447 349 -25 11 -66
32 -91 48 -25 15 -76 37 -115 48 -38 11 -104 33 -145 50 -110 44 -272 89 -381
105 -93 14 -394 28 -454 21z m315 -589 c52 -9 121 -20 153 -26 96 -15 293
-108 505 -237 73 -44 226 -189 304 -287 53 -68 167 -290 232 -456 64 -162 112
-368 126 -537 8 -93 10 -425 8 -1020 l-3 -882 -23 -23 -23 -23 -1019 -3 c-886
-2 -1025 0 -1056 13 -54 22 -44 51 33 95 64 37 129 81 228 155 33 25 81 60
106 78 152 106 396 376 497 551 76 130 164 313 177 366 7 30 25 95 39 143 32
108 57 343 57 534 0 207 -26 496 -51 568 -12 33 -30 98 -41 145 -18 80 -48
153 -155 376 -44 90 -147 237 -244 348 -45 51 -51 63 -46 89 13 64 12 64 196
33z m-898 -109 c32 -14 102 -80 178 -166 30 -35 62 -70 70 -80 141 -158 251
-344 300 -506 15 -49 37 -115 48 -145 11 -30 35 -152 52 -270 42 -287 47 -528
13 -633 -13 -38 -28 -98 -33 -134 -17 -104 -103 -263 -247 -458 -21 -27 -90
-102 -153 -165 -143 -142 -215 -202 -369 -312 -87 -62 -95 -68 -171 -115 -141
-86 -174 -104 -322 -174 -84 -39 -164 -79 -178 -89 -14 -10 -52 -29 -85 -43
-33 -13 -83 -35 -111 -47 -59 -26 -97 -22 -116 13 -10 17 -12 214 -10 932 2
925 6 1043 41 1183 11 42 24 111 31 152 6 41 26 108 44 150 19 41 40 93 46
115 12 37 83 188 116 245 8 14 28 50 44 80 30 58 174 212 250 268 66 49 175
111 223 128 23 8 62 24 87 36 88 43 200 58 252 35z"></path>
</g>
</svg>