 <svg version="1.0" xmlns="http://www.w3.org/2000/svg" width="700.000000pt" height="700.000000pt" viewBox="0 0 700.000000 700.000000" preserveAspectRatio="xMidYMid meet">
<metadata>
Created by potrace 1.12, written by Peter Selinger 2001-2015
</metadata>
<g transform="translate(0.000000,700.000000) scale(0.100000,-0.100000)" fill="#000000" stroke="none">
<path d="M5663 5574 c-20 -10 -56 -49 -90 -97 -32 -44 -77 -103 -100 -132 -65
-82 -93 -126 -93 -150 0 -35 33 -69 107 -109 193 -105 279 -174 401 -325 187
-230 287 -441 368 -776 l39 -160 0 -275 c0 -262 -1 -281 -28 -410 -32 -159
-36 -170 -95 -320 -147 -376 -322 -597 -635 -803 -198 -130 -233 -150 -328
-187 -140 -53 -188 -67 -404 -116 -83 -19 -347 -28 -488 -16 -137 12 -157 22
-157 83 0 30 8 45 46 85 95 100 194 216 229 272 21 31 50 75 64 97 114 168
218 437 286 738 67 296 87 762 46 1082 -12 94 -26 186 -31 206 -6 20 -21 89
-34 155 -60 293 -212 595 -395 783 -113 117 -264 226 -382 276 -142 60 -188
68 -399 69 -123 0 -215 -4 -249 -12 -118 -27 -300 -126 -454 -246 -35 -27 -69
-46 -84 -46 -14 0 -71 29 -127 64 -162 101 -242 141 -380 185 -212 69 -408 80
-699 41 -44 -6 -97 -20 -116 -29 -20 -10 -61 -26 -91 -34 -106 -31 -290 -136
-416 -238 -286 -232 -504 -566 -605 -927 -90 -320 -119 -508 -119 -761 0 -344
52 -632 178 -976 36 -100 114 -253 158 -311 21 -27 64 -88 95 -135 118 -177
339 -392 536 -520 112 -74 175 -108 344 -188 215 -101 400 -162 569 -186 58
-8 141 -23 185 -33 62 -13 127 -17 285 -16 190 0 220 3 410 37 113 19 228 45
255 57 27 12 79 29 115 40 36 10 85 27 110 39 66 30 119 27 210 -14 43 -19 82
-35 88 -35 6 0 37 -12 69 -26 40 -18 130 -38 293 -66 230 -39 239 -39 410 -34
157 5 317 24 530 65 69 13 277 79 344 109 128 57 281 134 320 161 23 15 72 48
111 72 162 102 383 312 491 466 172 246 223 336 270 475 122 363 134 409 165
617 42 290 41 526 -1 811 -42 287 -132 588 -233 780 -130 247 -293 451 -511
635 -120 102 -302 225 -331 225 -11 0 -35 -8 -52 -16z m-3667 -559 c93 -20
132 -34 188 -67 130 -76 234 -166 268 -232 27 -54 21 -97 -41 -288 -56 -171
-61 -196 -92 -423 -48 -341 -19 -832 66 -1135 34 -122 97 -301 143 -406 71
-164 232 -411 374 -572 62 -71 70 -89 51 -123 -23 -38 -43 -47 -145 -65 -129
-23 -420 -13 -534 17 -289 77 -340 95 -492 171 -96 47 -287 169 -362 230 -19
15 -65 52 -102 82 -62 50 -177 174 -225 243 -30 43 -186 350 -216 423 -30 77
-70 230 -91 353 -19 108 -23 453 -7 582 25 201 92 408 200 622 79 159 134 232
248 334 147 132 301 217 458 253 131 31 170 31 311 1z m1729 -5 c98 -25 157
-63 240 -152 139 -150 213 -297 285 -563 72 -266 94 -437 87 -695 -9 -364 -71
-611 -232 -925 -105 -206 -182 -313 -329 -459 -109 -108 -204 -176 -246 -176
-38 0 -127 68 -230 176 -110 115 -123 133 -216 294 -94 166 -124 236 -175 414
-56 200 -82 418 -83 706 -1 268 14 390 79 648 82 323 197 518 392 663 62 46
86 56 173 74 94 19 166 18 255 -5z"></path>
</g>
</svg>