 <svg version="1.0" xmlns="http://www.w3.org/2000/svg" width="700.000000pt" height="700.000000pt" viewBox="0 0 700.000000 700.000000" preserveAspectRatio="xMidYMid meet">
<metadata>
Created by potrace 1.12, written by Peter Selinger 2001-2015
</metadata>
<g transform="translate(0.000000,700.000000) scale(0.100000,-0.100000)" fill="#000000" stroke="none">
<path d="M2835 5665 c-122 -16 -200 -31 -245 -49 -36 -13 -88 -31 -115 -39
-28 -8 -73 -26 -100 -40 -80 -41 -200 -96 -243 -111 -21 -8 -72 -37 -113 -65
-41 -29 -97 -67 -126 -86 -53 -36 -255 -233 -301 -295 -15 -19 -54 -69 -87
-110 -61 -75 -120 -161 -187 -275 -39 -66 -127 -292 -153 -395 -9 -36 -23 -82
-31 -103 -8 -21 -26 -104 -40 -185 -14 -80 -29 -164 -35 -187 -15 -62 -28
-469 -19 -595 8 -104 60 -419 97 -585 44 -201 124 -424 200 -559 25 -44 62
-110 82 -146 51 -90 103 -158 213 -280 184 -203 298 -299 450 -379 31 -17 73
-42 95 -57 32 -21 46 -25 86 -21 30 2 56 12 68 23 17 18 51 90 109 234 12 30
35 83 51 118 36 78 38 134 7 157 -51 35 -101 66 -141 86 -151 77 -389 316
-468 471 -12 23 -32 57 -44 73 -55 73 -167 357 -196 495 -6 30 -22 93 -35 140
-56 204 -62 667 -10 855 8 28 17 70 21 94 20 124 152 429 258 598 48 75 152
199 222 265 87 81 248 199 330 240 22 12 54 31 71 44 17 13 48 30 70 38 22 7
62 24 89 36 77 35 348 81 510 87 122 5 169 1 360 -26 124 -18 230 -38 242 -47
31 -20 38 -55 19 -93 -9 -17 -20 -31 -25 -31 -15 0 -307 -262 -364 -328 -62
-70 -141 -173 -197 -256 -56 -82 -179 -351 -222 -484 -104 -322 -128 -509
-110 -874 14 -283 48 -521 96 -678 36 -118 154 -438 180 -488 66 -128 284
-372 384 -428 26 -15 56 -35 67 -44 11 -10 65 -40 120 -68 84 -44 119 -55 220
-73 235 -42 422 -22 594 63 86 43 201 120 276 187 149 133 360 441 467 685
132 301 218 721 218 1066 0 162 -18 378 -40 490 -10 52 -24 124 -30 160 -22
122 -127 416 -205 570 -146 290 -366 563 -615 762 -146 117 -361 241 -490 283
-30 10 -75 28 -100 40 -25 12 -78 30 -117 39 -40 9 -96 25 -125 37 -32 12
-126 30 -243 45 -245 31 -448 31 -700 -1z m1591 -966 c45 -28 130 -128 190
-225 26 -44 58 -92 69 -109 55 -78 177 -350 199 -442 63 -266 76 -378 76 -653
0 -255 -8 -344 -51 -550 -57 -278 -119 -432 -265 -658 -92 -143 -165 -219
-265 -277 -89 -53 -164 -70 -259 -61 -96 10 -235 80 -322 164 -104 100 -220
295 -294 497 -33 89 -83 353 -93 497 -16 210 -14 446 4 558 37 231 142 495
277 696 73 109 217 278 269 315 18 13 66 53 108 90 67 61 141 112 233 161 44
24 83 23 124 -3z"></path>
</g>
</svg>