 <svg version="1.0" xmlns="http://www.w3.org/2000/svg" width="700.000000pt" height="700.000000pt" viewBox="0 0 700.000000 700.000000" preserveAspectRatio="xMidYMid meet">
<metadata>
Created by potrace 1.12, written by Peter Selinger 2001-2015
</metadata>
<g transform="translate(0.000000,700.000000) scale(0.100000,-0.100000)" fill="#000000" stroke="none">
<path d="M2410 5699 c-100 -10 -332 -53 -410 -75 -97 -28 -393 -150 -465 -193
-181 -107 -354 -299 -526 -586 -94 -156 -208 -498 -254 -760 -57 -326 -57
-340 -62 -1549 -3 -856 -2 -1125 8 -1148 6 -16 23 -38 37 -48 24 -20 56 -20
2831 -20 2000 0 2817 3 2846 11 45 12 73 34 85 65 5 12 10 931 11 2042 2 1980
2 2021 -17 2054 -35 60 -67 68 -261 68 l-173 0 -32 -29 c-32 -28 -32 -29 -39
-152 -4 -68 -8 -872 -8 -1787 -1 -1844 4 -1708 -66 -1738 -29 -12 -367 -14
-2317 -14 -2216 0 -2284 1 -2314 19 -61 37 -62 42 -66 516 -3 417 -2 431 17
465 11 19 37 43 58 53 36 18 97 19 1440 18 771 -1 1429 -4 1462 -7 33 -3 135
-1 226 4 187 10 217 21 239 86 14 45 -4 694 -25 891 -30 275 -104 607 -172
770 -157 374 -426 670 -765 841 -111 56 -347 129 -550 170 -176 36 -192 37
-418 40 -129 1 -273 -2 -320 -7z m489 -539 c199 -15 356 -58 526 -143 147 -73
228 -129 311 -214 128 -132 174 -215 284 -518 17 -47 48 -183 84 -370 19 -100
31 -287 22 -349 -9 -57 -46 -102 -94 -115 -23 -7 -534 -11 -1373 -12 -1475 -1
-1380 -5 -1414 61 -40 77 4 511 77 770 70 247 169 415 327 557 115 103 169
139 315 209 237 114 540 154 935 124z"></path>
</g>
</svg>