 <svg version="1.0" xmlns="http://www.w3.org/2000/svg" width="700.000000pt" height="700.000000pt" viewBox="0 0 700.000000 700.000000" preserveAspectRatio="xMidYMid meet">
<metadata>
Created by potrace 1.12, written by Peter Selinger 2001-2015
</metadata>
<g transform="translate(0.000000,700.000000) scale(0.100000,-0.100000)" fill="#000000" stroke="none">
<path d="M6081 5368 c-13 -7 -33 -25 -44 -40 -20 -27 -21 -36 -21 -1820 l-1
-1793 -23 -32 c-14 -20 -37 -36 -60 -43 -52 -14 -1870 -14 -1909 1 -54 20 -59
72 -12 116 113 102 192 189 307 336 161 208 335 628 389 942 21 126 24 481 5
600 -36 215 -148 582 -220 715 -106 198 -252 377 -456 557 -157 138 -271 207
-461 280 -77 30 -160 62 -185 73 -55 22 -167 51 -320 82 -103 20 -143 23 -385
23 -268 0 -271 0 -430 -34 -164 -34 -185 -40 -385 -109 -197 -68 -294 -121
-485 -267 -157 -119 -221 -184 -342 -345 -169 -227 -281 -485 -360 -830 -34
-150 -36 -163 -40 -407 -7 -358 21 -530 147 -916 63 -191 94 -267 156 -385
132 -253 303 -479 519 -684 160 -152 362 -302 425 -315 70 -13 122 29 210 172
122 196 121 224 -9 322 -251 191 -346 277 -467 423 -106 127 -160 211 -229
355 -189 392 -240 616 -232 1009 4 215 5 225 40 356 55 209 111 331 235 520
135 204 254 304 547 456 237 123 479 172 775 159 189 -8 252 -18 390 -61 216
-68 493 -231 651 -384 127 -123 284 -418 364 -680 35 -118 48 -213 48 -375 1
-241 -44 -434 -155 -668 -163 -346 -235 -446 -532 -740 -232 -231 -315 -297
-508 -406 -134 -76 -152 -100 -146 -197 5 -81 37 -156 78 -186 24 -17 104 -18
1740 -20 1621 -1 1717 0 1758 17 85 35 77 -175 77 2105 0 1917 -1 2027 -18
2057 -30 57 -63 66 -242 70 -119 3 -166 1 -184 -9z"></path>
</g>
</svg>