 <svg version="1.0" xmlns="http://www.w3.org/2000/svg" width="700.000000pt" height="700.000000pt" viewBox="0 0 700.000000 700.000000" preserveAspectRatio="xMidYMid meet">
<metadata>
Created by potrace 1.12, written by Peter Selinger 2001-2015
</metadata>
<g transform="translate(0.000000,700.000000) scale(0.100000,-0.100000)" fill="#000000" stroke="none">
<path d="M2365 5729 c-137 -10 -401 -60 -490 -94 -33 -12 -85 -28 -115 -34
-127 -29 -315 -133 -487 -268 -149 -118 -179 -146 -270 -248 -214 -242 -270
-338 -445 -775 -160 -398 -232 -772 -244 -1272 -7 -288 8 -501 45 -660 11 -46
30 -128 41 -182 18 -82 38 -129 111 -272 48 -95 105 -199 125 -231 96 -151
275 -325 421 -412 102 -60 270 -129 375 -153 123 -28 381 -30 502 -4 90 20
290 96 351 134 61 38 227 166 256 199 142 153 275 441 319 688 73 416 26 772
-149 1130 -48 98 -73 135 -136 203 -43 45 -97 96 -122 113 -79 55 -302 148
-443 186 -128 34 -143 36 -300 37 -162 1 -167 0 -260 -32 -145 -50 -381 -186
-397 -228 -6 -17 -99 -84 -116 -84 -40 0 -48 68 -21 180 8 36 24 107 34 158
11 51 35 125 54 165 19 40 42 99 51 132 10 33 30 87 45 120 27 60 123 232 159
283 10 15 40 61 67 102 59 93 166 206 260 276 39 29 149 91 245 137 261 127
430 167 704 167 242 -1 462 -49 650 -142 225 -113 394 -238 466 -346 18 -26
58 -76 89 -112 151 -172 255 -410 305 -700 20 -120 45 -388 45 -495 0 -319
-108 -749 -242 -965 -167 -268 -518 -597 -778 -730 -43 -22 -80 -71 -80 -105
0 -27 38 -190 56 -242 20 -56 72 -100 126 -108 24 -3 789 -5 1700 -3 l1657 3
28 21 c15 11 34 32 40 46 10 20 13 478 13 2106 1 1891 -1 2084 -15 2113 -27
51 -62 59 -268 59 -174 0 -186 -1 -212 -22 -59 -47 -56 73 -55 -1898 1 -1320
-1 -1814 -9 -1829 -7 -11 -26 -29 -44 -38 -30 -17 -97 -18 -987 -21 -709 -2
-961 0 -982 9 -30 12 -44 45 -33 78 3 11 54 69 113 130 164 167 276 340 365
566 64 164 74 194 106 331 46 196 54 301 48 619 -6 291 -22 424 -78 646 -37
149 -159 441 -233 559 -124 199 -376 499 -506 602 -97 78 -258 178 -325 203
-27 10 -79 33 -115 51 -36 18 -85 37 -110 44 -25 6 -71 20 -103 31 -100 34
-560 95 -661 88 -12 -1 -75 -6 -141 -10z m-515 -2484 c30 -10 91 -34 136 -55
65 -32 95 -54 158 -120 99 -104 130 -153 168 -270 25 -79 31 -116 36 -220 6
-159 -9 -268 -57 -424 -49 -160 -92 -236 -181 -319 -93 -89 -129 -111 -235
-148 -126 -43 -239 -49 -359 -19 -49 12 -109 30 -132 41 -112 47 -270 182
-329 279 -15 25 -38 57 -52 71 -39 42 -109 229 -123 327 -17 116 -8 279 19
359 48 142 80 193 185 296 104 103 169 144 295 187 124 41 357 49 471 15z"></path>
</g>
</svg>