 <svg version="1.0" xmlns="http://www.w3.org/2000/svg" width="700.000000pt" height="700.000000pt" viewBox="0 0 700.000000 700.000000" preserveAspectRatio="xMidYMid meet">
<metadata>
Created by potrace 1.12, written by Peter Selinger 2001-2015
</metadata>
<g transform="translate(0.000000,700.000000) scale(0.100000,-0.100000)" fill="#000000" stroke="none">
<path d="M1400 5737 c-128 -80 -370 -296 -457 -408 -98 -126 -114 -148 -162
-230 -112 -190 -203 -412 -271 -659 -15 -58 -33 -118 -40 -135 -22 -57 -72
-382 -78 -513 -15 -282 22 -684 84 -942 52 -214 159 -494 251 -660 90 -160
235 -308 461 -468 211 -150 456 -222 759 -222 222 0 364 30 528 112 213 107
401 291 507 497 65 126 153 404 189 596 22 115 23 153 30 840 7 766 7 758 59
937 12 40 33 93 46 118 13 25 35 70 48 100 48 103 127 198 251 299 122 100
268 169 426 201 235 48 800 27 919 -35 28 -14 43 -46 34 -70 -3 -7 -54 -49
-114 -94 -201 -150 -451 -423 -572 -626 -48 -79 -123 -239 -144 -306 -9 -30
-25 -79 -36 -109 -11 -30 -36 -125 -55 -210 -33 -141 -37 -172 -41 -338 -5
-238 8 -375 64 -681 25 -133 100 -364 182 -556 31 -72 143 -227 216 -299 238
-235 453 -345 735 -377 190 -22 407 18 585 108 201 101 462 363 584 584 198
360 264 627 277 1124 4 151 3 264 -4 305 -5 36 -24 153 -40 260 -42 272 -82
396 -222 685 -66 137 -146 261 -228 354 -31 35 -78 92 -106 125 -27 34 -84 95
-125 136 -71 72 -92 88 -191 154 -24 16 -62 41 -84 56 -59 39 -168 97 -238
126 -132 55 -396 135 -536 163 -622 125 -1048 57 -1506 -241 -216 -141 -440
-433 -567 -738 -49 -116 -62 -161 -88 -303 -19 -104 -20 -152 -20 -707 0 -790
-12 -953 -81 -1168 -33 -102 -53 -141 -111 -228 -84 -127 -154 -187 -283 -247
l-90 -41 -155 -4 c-180 -4 -319 18 -428 68 -95 44 -238 147 -298 214 -113 127
-235 357 -279 526 -24 91 -73 391 -85 516 -20 218 -7 573 25 689 8 28 20 84
26 125 12 83 86 305 149 449 86 197 241 418 379 543 47 42 133 103 249 175 32
20 63 74 56 98 -3 11 -18 36 -33 55 -15 19 -69 90 -120 158 -52 67 -102 127
-112 132 -30 16 -82 11 -119 -13z m4217 -888 c37 -14 67 -43 113 -109 21 -30
60 -77 85 -105 26 -27 62 -73 80 -101 78 -121 177 -370 200 -505 9 -51 18 -96
20 -99 2 -4 14 -71 26 -151 42 -281 35 -629 -16 -844 -8 -33 -21 -91 -30 -130
-33 -148 -102 -310 -199 -465 -41 -66 -241 -255 -307 -290 -87 -46 -175 -63
-307 -58 -112 4 -113 5 -208 54 -146 75 -219 148 -332 334 -19 30 -43 77 -53
103 -11 26 -28 65 -39 87 -23 45 -72 219 -95 340 -22 116 -36 478 -24 607 10
107 74 336 123 438 13 28 36 77 52 110 54 115 203 315 306 410 101 94 223 192
323 261 179 122 217 138 282 113z"></path>
</g>
</svg>