 <svg version="1.0" xmlns="http://www.w3.org/2000/svg" width="700.000000pt" height="700.000000pt" viewBox="0 0 700.000000 700.000000" preserveAspectRatio="xMidYMid meet">
<metadata>
Created by potrace 1.12, written by Peter Selinger 2001-2015
</metadata>
<g transform="translate(0.000000,700.000000) scale(0.100000,-0.100000)" fill="#000000" stroke="none">
<path d="M3658 5490 c-212 -36 -408 -139 -546 -289 -64 -69 -179 -245 -196
-299 -8 -26 -23 -72 -34 -102 -11 -30 -27 -104 -36 -163 -65 -443 88 -791 487
-1105 101 -79 180 -125 323 -187 124 -54 246 -90 338 -100 59 -7 75 -13 105
-41 l36 -32 0 -381 0 -381 -28 -27 -27 -28 -796 -3 c-585 -2 -800 1 -810 9 -8
6 -14 26 -14 43 0 24 11 42 48 78 97 95 192 290 222 455 55 304 -14 638 -174
848 -130 170 -254 276 -441 380 -193 106 -586 158 -835 110 -172 -33 -323
-100 -475 -210 -234 -170 -428 -446 -492 -700 -25 -99 -28 -127 -27 -275 0
-139 5 -185 27 -294 42 -199 113 -361 242 -547 83 -120 138 -182 235 -264 100
-85 124 -99 155 -91 54 14 225 241 225 299 0 26 -18 48 -113 141 -162 158
-236 268 -300 444 -31 85 -31 90 -32 267 l0 180 36 100 c20 55 47 117 60 137
13 21 40 63 59 94 75 120 244 224 444 274 119 30 138 32 240 27 233 -11 463
-112 582 -254 77 -92 113 -159 146 -276 40 -142 42 -261 9 -412 -26 -115 -104
-284 -176 -380 -80 -107 -271 -257 -428 -337 -77 -38 -92 -70 -73 -152 14 -60
35 -90 77 -111 21 -11 462 -14 2482 -15 2645 -1 2508 -3 2536 48 16 29 15
3126 0 3170 -7 22 -37 51 -91 92 -137 103 -215 132 -250 93 -17 -20 -135 -235
-150 -272 -21 -56 -138 -232 -253 -381 -53 -69 -121 -156 -150 -195 -78 -102
-183 -205 -340 -334 -353 -289 -480 -361 -781 -438 -53 -14 -67 -14 -94 -3
-17 7 -36 25 -42 39 -7 17 -11 208 -12 536 -2 562 -5 605 -61 758 -101 279
-281 424 -568 457 -95 11 -202 11 -269 0z m253 -450 c94 -26 164 -118 200
-265 21 -84 22 -119 26 -525 3 -239 2 -454 -2 -478 -13 -90 -82 -105 -239 -51
-184 63 -305 139 -427 266 -138 145 -197 274 -206 453 -5 97 -3 112 25 203 52
164 154 292 295 367 86 47 220 59 328 30z m2368 -787 c7 -20 10 -292 8 -941
l-2 -914 -28 -24 -28 -24 -795 0 c-853 0 -837 -1 -864 49 -6 13 -10 156 -10
391 l0 372 33 33 c23 23 48 36 87 44 138 29 405 121 490 169 328 184 483 294
718 511 87 80 214 220 273 299 45 63 100 79 118 35z"></path>
</g>
</svg>