 <svg version="1.0" xmlns="http://www.w3.org/2000/svg" width="700.000000pt" height="700.000000pt" viewBox="0 0 700.000000 700.000000" preserveAspectRatio="xMidYMid meet">
<metadata>
Created by potrace 1.12, written by Peter Selinger 2001-2015
</metadata>
<g transform="translate(0.000000,700.000000) scale(0.100000,-0.100000)" fill="#000000" stroke="none">
<path d="M5833 5277 c-12 -7 -35 -30 -52 -52 -16 -22 -57 -74 -91 -115 -96
-117 -101 -150 -27 -197 147 -94 183 -122 257 -200 72 -76 230 -297 230 -321
0 -5 13 -28 29 -53 16 -24 33 -57 36 -74 4 -16 18 -55 30 -85 53 -129 77 -226
91 -370 43 -452 -19 -891 -160 -1135 -79 -137 -191 -266 -288 -333 -59 -40
-193 -91 -271 -103 -140 -20 -347 3 -414 46 -108 69 -228 203 -253 282 -7 21
-21 52 -31 69 -11 17 -30 96 -45 190 -28 158 -28 163 -35 789 -6 591 -8 635
-27 715 -38 154 -89 303 -124 365 -7 11 -23 40 -37 65 -35 62 -130 186 -179
234 -211 204 -547 302 -857 251 -114 -19 -348 -105 -440 -163 -114 -71 -275
-249 -349 -387 -42 -77 -63 -105 -80 -105 -6 0 -33 43 -59 96 -26 53 -67 121
-90 151 -23 31 -52 70 -63 87 -38 55 -213 196 -245 196 -9 0 -38 12 -65 26
-67 35 -213 84 -304 100 -254 45 -653 -15 -900 -135 -250 -123 -350 -211 -514
-456 -110 -164 -181 -309 -209 -425 -9 -36 -22 -83 -31 -105 -41 -113 -69
-527 -46 -697 5 -40 14 -118 21 -173 6 -55 18 -120 26 -145 9 -25 24 -79 33
-120 27 -112 95 -270 178 -406 20 -34 59 -99 86 -145 71 -122 281 -329 459
-454 128 -90 203 -131 252 -137 26 -3 31 4 102 141 62 120 74 151 71 184 -3
38 -7 42 -85 91 -129 81 -193 130 -263 199 -87 86 -230 260 -264 322 -58 103
-116 220 -116 234 0 7 -11 39 -25 70 -30 69 -72 313 -81 471 -15 278 75 641
198 798 16 19 28 40 28 47 0 20 105 148 156 190 179 148 278 200 438 232 105
21 356 23 446 4 63 -14 165 -61 264 -122 138 -85 286 -242 353 -374 60 -117
81 -171 102 -270 21 -98 21 -120 24 -1080 2 -1032 1 -1010 46 -1034 21 -12
262 -16 301 -6 57 14 55 -40 60 1100 l5 1050 27 110 c47 194 111 308 248 438
148 141 306 207 497 207 132 0 245 -42 351 -129 75 -63 160 -191 202 -306 12
-33 28 -76 35 -95 29 -80 38 -252 36 -730 -1 -283 2 -501 8 -540 5 -36 15
-121 21 -190 7 -70 20 -151 32 -185 11 -33 26 -82 33 -110 13 -47 57 -147 108
-242 37 -70 146 -200 221 -266 123 -109 209 -157 342 -192 346 -92 706 -17
986 207 49 38 110 95 138 126 63 70 172 233 203 303 14 30 43 93 66 141 22 48
46 111 52 140 6 29 18 65 25 80 12 24 52 226 76 388 5 36 8 194 5 355 -3 254
-7 302 -26 385 -54 233 -86 346 -114 405 -100 209 -169 333 -263 475 -75 114
-213 244 -372 352 -18 13 -46 33 -62 46 -31 25 -45 27 -77 9z"></path>
</g>
</svg>