 <svg version="1.0" xmlns="http://www.w3.org/2000/svg" width="700.000000pt" height="700.000000pt" viewBox="0 0 700.000000 700.000000" preserveAspectRatio="xMidYMid meet">
<metadata>
Created by potrace 1.12, written by Peter Selinger 2001-2015
</metadata>
<g transform="translate(0.000000,700.000000) scale(0.100000,-0.100000)" fill="#000000" stroke="none">
<path d="M5155 5503 c-222 -18 -365 -51 -555 -128 -193 -78 -353 -187 -496
-336 -94 -98 -294 -380 -294 -415 0 -5 -11 -25 -23 -44 -23 -34 -49 -100 -88
-230 -11 -36 -31 -101 -45 -145 -25 -83 -54 -342 -54 -488 0 -112 28 -332 55
-432 13 -49 27 -106 31 -125 6 -33 67 -189 115 -295 29 -64 100 -174 177 -270
48 -61 52 -88 19 -110 -21 -14 -126 -15 -910 -13 l-886 3 -23 22 -22 22 40 38
c62 60 152 196 205 311 61 134 82 344 55 531 -10 63 -23 130 -31 150 -64 170
-75 190 -160 306 -147 197 -346 347 -555 419 -163 56 -471 91 -585 67 -271
-58 -364 -94 -538 -206 -135 -88 -359 -352 -402 -476 -9 -24 -22 -54 -30 -66
-9 -12 -22 -53 -31 -90 -8 -38 -23 -88 -32 -113 -14 -37 -17 -77 -16 -220 1
-105 6 -191 14 -215 6 -22 22 -78 35 -125 71 -260 169 -428 376 -645 166 -174
201 -187 278 -107 80 83 171 222 171 260 0 4 -37 40 -83 78 -92 79 -217 224
-262 305 -16 30 -45 95 -64 144 -34 89 -34 91 -35 260 -1 166 0 173 32 275 18
58 39 115 45 126 63 114 196 248 293 297 174 86 420 131 544 97 338 -92 518
-243 595 -501 21 -68 25 -104 25 -202 0 -296 -87 -495 -296 -680 -107 -94
-241 -189 -326 -233 -68 -34 -73 -65 -29 -168 37 -85 -117 -78 1659 -77 1219
1 1580 4 1597 14 13 7 46 41 74 77 28 36 61 78 73 94 13 16 33 47 45 67 l21
38 -31 24 c-18 13 -48 32 -67 42 -92 46 -201 137 -293 244 -186 215 -281 366
-357 566 -53 139 -91 347 -92 500 0 129 47 435 79 510 134 314 246 467 457
625 89 66 215 140 240 140 7 0 40 11 74 25 69 28 260 55 387 55 298 -1 551
-95 775 -288 100 -86 153 -150 227 -274 132 -219 184 -377 208 -628 14 -156
14 -175 -4 -345 -18 -162 -24 -191 -61 -290 -54 -142 -62 -156 -183 -355 -52
-84 -165 -217 -264 -311 -78 -73 -287 -221 -330 -234 -25 -7 -63 -50 -63 -71
0 -24 131 -211 199 -283 28 -30 35 -33 72 -28 69 9 249 142 477 352 101 93
298 380 388 565 65 133 96 213 120 309 13 52 30 115 39 140 33 101 46 432 25
639 -19 184 -100 465 -174 608 -101 192 -173 296 -298 429 -221 233 -434 358
-756 439 -139 36 -376 59 -497 49z"></path>
</g>
</svg>