 <svg version="1.0" xmlns="http://www.w3.org/2000/svg" width="700.000000pt" height="700.000000pt" viewBox="0 0 700.000000 700.000000" preserveAspectRatio="xMidYMid meet">
<metadata>
Created by potrace 1.12, written by Peter Selinger 2001-2015
</metadata>
<g transform="translate(0.000000,700.000000) scale(0.100000,-0.100000)" fill="#000000" stroke="none">
<path d="M3135 6564 c-190 -20 -580 -102 -750 -158 -233 -77 -464 -184 -552
-255 -220 -176 -366 -326 -458 -469 -20 -31 -52 -79 -70 -107 -40 -60 -155
-285 -155 -303 0 -8 -16 -59 -35 -115 -32 -96 -57 -220 -87 -437 -16 -120 -16
-454 1 -585 38 -302 52 -377 86 -460 19 -46 35 -90 35 -97 0 -7 23 -60 51
-118 161 -333 232 -430 428 -585 166 -131 615 -254 839 -230 35 4 96 16 135
27 40 11 106 28 148 39 72 17 202 80 339 165 80 49 221 194 289 296 97 145
190 349 216 473 10 44 26 112 37 150 15 52 22 111 25 230 5 173 11 132 -76
516 -9 41 -26 91 -38 110 -11 18 -28 58 -38 87 -18 57 -57 118 -143 227 -159
201 -294 297 -539 387 -114 41 -122 43 -238 43 -114 0 -185 -10 -380 -50 -91
-19 -303 -105 -354 -143 -122 -90 -166 -109 -173 -74 -7 31 10 84 36 111 14
14 32 46 41 70 23 66 164 243 235 296 15 11 70 52 121 91 52 39 112 80 134 91
22 11 63 34 90 51 110 68 261 102 655 148 219 25 674 31 870 10 421 -45 497
-57 687 -110 126 -35 333 -122 348 -146 4 -6 25 -22 47 -36 73 -46 184 -142
210 -181 39 -60 88 -178 99 -242 15 -86 -2 -254 -33 -317 -14 -27 -31 -65 -38
-84 -26 -68 -119 -195 -187 -256 -89 -80 -233 -156 -338 -178 -44 -10 -111
-26 -150 -36 -38 -10 -112 -24 -164 -30 -105 -12 -123 -19 -149 -57 -15 -24
-17 -54 -17 -234 0 -195 1 -209 21 -236 11 -15 32 -33 45 -39 13 -7 122 -17
242 -23 275 -14 431 -34 508 -66 32 -13 85 -31 116 -40 32 -9 101 -37 153 -63
75 -37 111 -63 171 -122 70 -70 79 -83 120 -185 56 -140 62 -215 29 -367 -30
-140 -73 -220 -171 -318 -91 -89 -177 -136 -379 -205 -108 -37 -151 -46 -320
-65 -189 -22 -233 -23 -1420 -30 -1306 -7 -1332 -8 -1585 -59 -173 -35 -378
-131 -533 -248 -135 -102 -257 -299 -291 -470 -52 -259 -34 -449 63 -648 43
-90 66 -123 123 -181 82 -83 168 -152 255 -205 147 -90 323 -154 474 -174 258
-34 346 -35 2309 -35 1901 0 1971 1 1995 19 14 10 33 32 43 49 17 28 17 47 10
236 -8 188 -10 208 -29 226 l-20 21 -2055 3 c-1903 2 -2060 3 -2139 20 -95 19
-194 60 -290 122 -36 22 -77 49 -92 58 -60 36 -113 189 -106 305 9 139 83 243
228 316 145 73 206 76 1695 75 1386 0 1433 1 1700 60 179 39 210 47 265 75 25
12 75 32 112 44 37 13 70 27 74 32 3 5 29 21 57 35 60 30 169 108 243 174 151
133 295 401 330 616 35 216 38 306 15 472 -17 130 -26 165 -59 240 -22 48 -45
104 -51 124 -7 21 -17 40 -22 43 -5 3 -26 36 -48 73 -96 163 -413 387 -611
432 -80 18 -110 36 -110 65 0 18 11 32 40 51 22 15 40 30 40 35 0 4 21 23 48
40 136 93 222 201 340 429 86 168 118 329 101 514 -14 147 -34 232 -73 311
-19 39 -46 95 -59 125 -53 121 -167 255 -317 370 -87 68 -244 157 -315 180
-22 7 -60 23 -85 36 -90 47 -484 147 -700 179 -52 8 -138 21 -190 30 -74 13
-182 17 -495 20 -220 2 -418 1 -440 -1z m-554 -1764 c112 -33 189 -81 288
-181 78 -77 96 -102 140 -191 27 -57 55 -123 61 -147 14 -53 14 -364 1 -441
-29 -166 -225 -455 -352 -520 -24 -13 -59 -33 -79 -46 -53 -35 -142 -54 -254
-54 -152 0 -216 15 -336 77 -182 95 -342 274 -391 436 -11 37 -31 90 -46 118
-22 45 -26 68 -30 178 -6 166 6 255 52 374 31 78 49 108 94 156 186 196 390
277 672 266 71 -2 132 -11 180 -25z"></path>
</g>
</svg>