 <svg version="1.0" xmlns="http://www.w3.org/2000/svg" width="700.000000pt" height="700.000000pt" viewBox="0 0 700.000000 700.000000" preserveAspectRatio="xMidYMid meet">
<metadata>
Created by potrace 1.12, written by Peter Selinger 2001-2015
</metadata>
<g transform="translate(0.000000,700.000000) scale(0.100000,-0.100000)" fill="#000000" stroke="none">
<path d="M3513 5539 c-148 -29 -391 -134 -535 -231 -126 -86 -273 -261 -318
-378 -7 -19 -26 -55 -41 -80 -35 -56 -111 -291 -138 -425 -45 -224 -46 -473
-1 -750 22 -140 82 -341 149 -500 11 -27 32 -78 46 -112 62 -154 78 -192 106
-247 55 -111 33 -166 -68 -166 -84 0 -385 76 -493 124 -30 14 -75 34 -100 45
-122 55 -373 237 -440 320 -141 174 -210 305 -241 456 -49 236 -50 245 -46
420 3 125 9 182 21 215 9 25 25 83 36 130 16 72 80 233 122 305 7 11 28 49 48
85 38 70 87 136 175 240 83 97 125 162 125 190 0 41 -40 94 -120 160 -41 34
-84 72 -95 84 -11 12 -42 40 -69 62 -40 31 -58 38 -90 38 -47 -2 -40 6 -263
-268 -51 -62 -144 -198 -168 -246 -10 -19 -28 -47 -40 -62 -13 -15 -33 -58
-46 -95 -12 -37 -35 -91 -50 -118 -16 -28 -33 -75 -40 -105 -6 -30 -24 -86
-40 -125 -42 -106 -95 -543 -84 -695 13 -184 50 -401 77 -454 11 -22 31 -69
45 -105 13 -36 39 -90 57 -121 18 -30 48 -81 67 -114 44 -75 119 -165 244
-291 101 -101 255 -227 304 -248 14 -6 44 -23 66 -38 44 -28 265 -139 279
-139 5 0 36 -14 70 -32 33 -17 106 -44 161 -59 55 -14 125 -36 155 -47 30 -11
93 -25 140 -32 47 -6 143 -22 213 -36 71 -13 177 -27 235 -30 149 -9 160 -17
208 -142 22 -56 27 -88 31 -197 6 -148 4 -157 -70 -273 -90 -139 -212 -186
-482 -187 -175 0 -223 9 -370 67 -75 30 -111 51 -274 160 -72 49 -198 155
-257 218 -70 74 -129 91 -161 44 -10 -14 -34 -45 -53 -68 -20 -22 -49 -59 -65
-80 -17 -22 -56 -74 -87 -115 -86 -112 -78 -153 51 -272 232 -214 573 -400
875 -478 140 -36 143 -36 346 -36 366 0 610 62 781 196 71 56 157 151 191 209
17 30 39 66 50 79 10 13 28 56 39 95 12 39 32 106 45 149 21 67 24 100 26 250
2 148 -1 184 -20 260 -32 128 -30 160 11 191 44 34 112 63 178 77 29 6 82 27
117 45 35 19 69 34 76 34 7 0 39 16 72 36 32 20 77 43 99 52 22 8 64 30 92 49
29 18 68 39 85 48 60 27 221 149 319 240 44 41 140 155 217 256 73 96 195 300
212 354 7 22 24 67 37 100 62 147 105 531 83 728 -6 50 -12 93 -15 96 -2 4
-11 49 -20 101 -23 140 -128 389 -218 523 -94 140 -322 372 -416 423 -25 14
-73 41 -106 60 -33 18 -95 47 -138 64 -81 32 -314 100 -405 119 -61 13 -436
13 -499 0z m541 -590 c239 -45 445 -197 589 -434 43 -71 60 -117 93 -250 20
-83 24 -125 24 -250 0 -240 -32 -398 -111 -555 -21 -43 -39 -82 -39 -87 0 -34
-224 -274 -317 -339 -30 -22 -76 -55 -101 -74 -66 -48 -207 -123 -272 -145
-30 -10 -80 -31 -110 -46 -108 -56 -265 -83 -318 -55 -37 19 -53 49 -116 211
-25 66 -61 149 -80 185 -18 36 -39 83 -46 105 -7 22 -25 63 -40 90 -16 28 -34
70 -40 95 -7 25 -23 71 -36 103 -34 81 -91 322 -105 442 -15 133 -6 241 35
416 45 192 97 291 211 404 122 122 236 181 385 198 108 12 291 6 394 -14z"></path>
</g>
</svg>