 <svg version="1.0" xmlns="http://www.w3.org/2000/svg" width="700.000000pt" height="672.000000pt" viewBox="0 0 700.000000 672.000000" preserveAspectRatio="xMidYMid meet">
<metadata>
Created by potrace 1.12, written by Peter Selinger 2001-2015
</metadata>
<g transform="translate(0.000000,672.000000) scale(0.100000,-0.100000)" fill="#000000" stroke="none">
<path d="M3140 5905 c-280 -32 -531 -99 -785 -208 -470 -201 -885 -540 -1181
-962 -202 -289 -364 -682 -418 -1015 -44 -279 -47 -613 -7 -875 123 -795 677
-1519 1438 -1877 122 -57 330 -130 422 -149 188 -37 400 80 489 270 35 72 36
81 37 181 0 90 -4 113 -24 160 -65 146 -169 246 -307 294 -225 77 -367 148
-509 256 -327 247 -528 546 -607 905 -33 152 -40 233 -35 425 3 151 9 206 30
300 115 515 450 931 956 1189 437 223 972 256 1441 90 448 -158 832 -497 1035
-914 67 -136 96 -224 131 -390 24 -115 27 -152 27 -320 -1 -193 -12 -276 -60
-460 -37 -138 -119 -306 -220 -449 -76 -107 -276 -307 -384 -384 -123 -88
-292 -173 -448 -226 -74 -26 -150 -56 -170 -68 -96 -59 -180 -166 -212 -269
-23 -74 -25 -194 -4 -262 50 -166 203 -300 373 -328 72 -11 271 2 377 25 302
65 662 288 910 562 347 383 567 789 695 1278 100 383 97 840 -6 1234 -119 453
-349 848 -694 1192 -219 219 -436 375 -725 521 -264 133 -527 218 -805 260
-175 27 -588 35 -760 14z"></path>
</g>
</svg>