 <svg version="1.0" xmlns="http://www.w3.org/2000/svg" width="700.000000pt" height="700.000000pt" viewBox="0 0 700.000000 700.000000" preserveAspectRatio="xMidYMid meet">
<metadata>
Created by potrace 1.12, written by Peter Selinger 2001-2015
</metadata>
<g transform="translate(0.000000,700.000000) scale(0.100000,-0.100000)" fill="#000000" stroke="none">
<path d="M4710 5863 c-25 -2 -97 -13 -160 -24 -405 -71 -646 -187 -825 -396
-131 -153 -217 -293 -298 -488 -61 -145 -65 -157 -106 -340 -54 -237 -54 -237
-56 -1170 -2 -854 -6 -1030 -26 -1150 -37 -219 -172 -525 -292 -661 -87 -99
-296 -232 -430 -273 -61 -18 -159 -36 -310 -56 -26 -3 -100 -6 -165 -6 -309 0
-581 152 -768 430 -27 41 -71 106 -97 145 -27 39 -64 105 -84 146 -19 41 -46
98 -59 127 -123 253 -209 898 -178 1338 25 367 33 451 50 530 33 162 153 450
233 560 15 22 59 87 96 145 53 83 99 137 218 256 155 153 246 227 380 309 91
55 137 104 137 145 0 31 -81 197 -144 293 -43 67 -104 103 -153 91 -37 -10
-269 -128 -360 -184 -124 -77 -304 -247 -434 -410 -50 -63 -216 -309 -276
-410 -319 -533 -443 -1337 -328 -2120 51 -352 144 -680 256 -902 56 -112 210
-356 277 -438 172 -213 369 -383 552 -475 98 -49 312 -129 406 -151 194 -45
554 -46 774 -3 79 16 332 113 420 161 173 94 393 285 530 458 42 52 123 187
170 280 55 108 128 343 155 495 48 275 55 426 51 1195 -4 634 -2 726 15 914
20 221 34 298 69 387 12 30 32 83 44 119 46 133 172 284 326 387 139 93 287
133 493 133 345 0 665 -135 911 -385 73 -74 89 -98 153 -226 73 -147 94 -202
157 -414 44 -147 61 -248 81 -475 27 -298 30 -504 11 -690 -24 -231 -44 -354
-72 -431 -13 -37 -35 -118 -49 -179 -85 -384 -419 -798 -840 -1042 -44 -26
-92 -51 -107 -57 -53 -20 -155 -91 -166 -116 -20 -43 -14 -86 24 -170 20 -44
53 -123 75 -175 22 -52 51 -107 66 -122 53 -56 131 -54 248 4 28 14 76 35 108
48 141 56 405 258 583 445 294 309 447 552 583 922 55 150 132 551 150 779 23
291 21 513 -10 924 -11 160 -82 505 -139 685 -74 231 -200 455 -371 661 -81
97 -251 260 -335 320 -92 66 -231 140 -299 159 -33 9 -100 29 -150 45 -212 66
-559 116 -715 103z"></path>
</g>
</svg>