 <svg version="1.0" xmlns="http://www.w3.org/2000/svg" width="700.000000pt" height="700.000000pt" viewBox="0 0 700.000000 700.000000" preserveAspectRatio="xMidYMid meet">
<metadata>
Created by potrace 1.12, written by Peter Selinger 2001-2015
</metadata>
<g transform="translate(0.000000,700.000000) scale(0.100000,-0.100000)" fill="#000000" stroke="none">
<path d="M1090 5030 c-36 -5 -90 -16 -120 -24 -30 -8 -73 -17 -95 -21 -22 -3
-58 -15 -80 -25 -22 -10 -76 -32 -120 -50 -80 -31 -156 -77 -228 -137 -44 -36
-157 -168 -195 -228 -14 -22 -36 -56 -48 -75 -35 -53 -82 -192 -99 -287 -41
-237 -1 -452 132 -698 107 -198 294 -395 374 -395 28 0 79 50 174 169 l59 73
-97 94 c-156 152 -206 225 -258 379 -44 131 -26 369 35 465 95 149 159 217
254 267 26 14 52 28 57 33 6 4 46 23 90 41 l80 34 205 -1 205 0 92 -36 c116
-45 216 -111 291 -193 71 -78 103 -142 131 -261 46 -198 18 -336 -96 -488
-107 -140 -280 -264 -431 -307 -45 -13 -72 -40 -72 -73 0 -45 43 -161 70 -188
l28 -28 801 0 800 0 26 -23 27 -22 -2 -528 -1 -527 26 -10 c41 -16 3642 -13
3677 3 l28 12 0 1445 c1 795 1 1455 1 1467 -1 34 -61 45 -216 41 -95 -2 -137
-7 -149 -17 -15 -13 -17 -105 -16 -1283 1 -963 -1 -1273 -10 -1283 -7 -8 -29
-19 -49 -25 -44 -12 -2775 -13 -2839 -1 -78 15 -75 0 -76 363 -1 178 2 331 7
341 23 49 7 48 1123 47 1182 -1 1097 -7 1110 77 4 26 4 165 1 308 -6 278 -24
410 -82 627 -67 252 -271 574 -446 708 -122 93 -298 175 -424 198 -33 6 -94
18 -135 27 -103 23 -391 23 -473 1 -32 -9 -93 -23 -135 -32 -42 -9 -88 -22
-102 -29 -14 -7 -51 -20 -81 -28 -117 -30 -266 -138 -380 -273 -74 -88 -176
-241 -192 -288 -5 -17 -14 -36 -18 -42 -16 -20 -76 -209 -98 -304 -20 -91 -34
-214 -50 -440 -7 -115 -11 -127 -47 -140 -36 -14 -842 -14 -878 -1 -24 10 -27
15 -22 37 4 15 24 47 45 73 49 59 71 103 110 221 28 86 31 107 31 221 0 217
-44 388 -143 564 -59 104 -171 227 -262 287 -96 63 -255 135 -326 147 -35 6
-93 18 -129 26 -82 18 -285 27 -370 15z m3612 -418 c133 -47 244 -119 333
-214 165 -179 267 -459 279 -767 l5 -144 -29 -29 -29 -29 -869 3 c-809 3 -870
4 -895 21 -15 9 -29 28 -33 42 -11 44 14 317 39 430 34 149 87 289 140 372
107 164 304 295 517 344 19 4 130 7 245 5 206 -3 212 -3 297 -34z"></path>
</g>
</svg>