 <svg version="1.0" xmlns="http://www.w3.org/2000/svg" width="700.000000pt" height="700.000000pt" viewBox="0 0 700.000000 700.000000" preserveAspectRatio="xMidYMid meet">
<metadata>
Created by potrace 1.12, written by Peter Selinger 2001-2015
</metadata>
<g transform="translate(0.000000,700.000000) scale(0.100000,-0.100000)" fill="#000000" stroke="none">
<path d="M5094 5360 c-114 -9 -407 -76 -534 -121 -151 -54 -314 -152 -460
-278 -116 -100 -218 -212 -351 -384 -30 -39 -66 -52 -94 -33 -13 8 -45 48 -71
89 -44 67 -163 205 -269 312 -168 169 -413 291 -740 370 -158 37 -291 48 -510
42 -172 -5 -204 -9 -331 -40 -420 -103 -585 -194 -859 -472 -156 -158 -260
-301 -301 -414 -9 -25 -46 -113 -81 -196 -73 -170 -145 -379 -172 -499 -43
-184 -75 -459 -86 -721 -9 -229 28 -527 85 -696 36 -104 152 -347 185 -388 12
-14 36 -47 53 -72 118 -174 313 -312 532 -376 87 -25 109 -28 255 -28 153 1
165 2 270 34 313 96 542 285 667 551 92 194 128 369 128 618 0 221 -31 359
-134 599 -78 183 -209 306 -416 390 -161 66 -328 103 -469 103 -145 0 -346
-81 -505 -204 -54 -42 -105 -76 -111 -76 -7 0 -18 7 -25 15 -18 21 4 228 32
305 11 30 33 91 48 135 62 179 124 298 251 477 114 160 180 216 388 326 153
82 302 136 417 154 112 16 422 16 514 -1 158 -29 407 -151 556 -272 44 -36
167 -181 222 -261 50 -73 100 -199 122 -310 19 -97 20 -137 20 -1238 0 -730 4
-1148 10 -1165 17 -44 62 -55 221 -55 162 0 200 11 218 62 8 21 11 335 11 992
0 607 4 993 10 1046 43 350 155 564 445 855 158 158 452 307 687 347 109 19
450 16 568 -5 114 -20 274 -76 351 -122 202 -123 282 -389 182 -603 -42 -90
-149 -189 -264 -245 -234 -113 -384 -145 -714 -153 -132 -3 -254 -10 -272 -16
-18 -5 -44 -23 -58 -39 -24 -30 -25 -34 -25 -184 0 -94 4 -164 11 -179 23 -49
65 -56 342 -56 519 0 845 -88 1049 -284 115 -110 146 -160 172 -275 36 -162
13 -323 -66 -468 -124 -226 -302 -325 -583 -324 -208 0 -545 82 -719 175 -69
36 -133 36 -168 -1 -33 -36 -147 -271 -149 -309 -2 -16 1 -39 5 -51 9 -28 76
-68 153 -93 32 -10 83 -28 113 -39 182 -66 450 -127 658 -151 142 -16 320 1
452 44 250 81 390 173 544 359 97 116 147 219 191 390 30 120 36 161 42 301 5
131 3 181 -11 258 -19 102 -72 235 -141 348 -88 146 -260 283 -460 369 -55 24
-109 52 -119 62 -20 18 -20 19 5 45 13 15 49 43 79 62 81 52 176 129 246 198
77 76 168 251 184 354 40 261 -35 528 -204 724 -100 116 -314 249 -476 296
-253 73 -532 106 -746 90z m-3515 -2114 c285 -101 419 -383 355 -751 -36 -211
-104 -344 -229 -448 -164 -138 -419 -166 -621 -71 -123 59 -189 124 -282 280
-62 104 -106 277 -99 394 6 86 41 219 78 292 69 136 252 277 419 323 89 24
285 15 379 -19z"></path>
</g>
</svg>