 <svg version="1.0" xmlns="http://www.w3.org/2000/svg" width="700.000000pt" height="700.000000pt" viewBox="0 0 700.000000 700.000000" preserveAspectRatio="xMidYMid meet">
<metadata>
Created by potrace 1.12, written by Peter Selinger 2001-2015
</metadata>
<g transform="translate(0.000000,700.000000) scale(0.100000,-0.100000)" fill="#000000" stroke="none">
<path d="M5723 5566 c-17 -8 -39 -26 -48 -40 -16 -23 -17 -145 -15 -1595 1
-1725 5 -1618 -58 -1642 -32 -12 -2476 -20 -2509 -8 -17 6 -23 16 -23 36 0 32
19 58 70 95 91 67 189 188 269 333 47 83 99 285 107 410 18 283 -101 634 -286
847 -157 181 -427 334 -670 379 -82 15 -452 15 -540 0 -249 -44 -484 -157
-643 -310 -133 -128 -223 -276 -278 -456 -33 -107 -34 -114 -33 -285 0 -171 1
-177 33 -275 65 -195 160 -345 218 -345 13 0 78 30 146 66 120 64 181 111 192
145 6 18 -19 88 -65 184 -38 78 -54 185 -46 300 7 109 19 155 54 209 65 101
135 162 262 225 203 102 594 104 800 3 187 -91 298 -216 355 -402 22 -72 31
-265 16 -357 -32 -204 -219 -479 -426 -625 -93 -66 -165 -102 -293 -146 l-107
-36 -835 3 -835 3 -25 -27 c-24 -26 -25 -31 -28 -197 -4 -181 3 -219 41 -240
15 -8 785 -11 2783 -11 2607 -1 2763 0 2788 17 15 9 31 28 36 42 13 34 13
3614 0 3648 -19 51 -49 60 -219 63 -120 3 -163 0 -188 -11z"></path>
</g>
</svg>