 <svg version="1.0" xmlns="http://www.w3.org/2000/svg" width="700.000000pt" height="700.000000pt" viewBox="0 0 700.000000 700.000000" preserveAspectRatio="xMidYMid meet">
<metadata>
Created by potrace 1.12, written by Peter Selinger 2001-2015
</metadata>
<g transform="translate(0.000000,700.000000) scale(0.100000,-0.100000)" fill="#000000" stroke="none">
<path d="M5015 4950 c-93 -8 -386 -69 -424 -89 -9 -5 -44 -16 -77 -25 -68 -18
-162 -61 -244 -111 -30 -19 -73 -44 -95 -56 -103 -56 -269 -203 -362 -319
-137 -171 -197 -279 -268 -482 -65 -187 -109 -510 -92 -685 24 -251 125 -555
250 -748 58 -90 130 -185 162 -215 14 -13 25 -33 25 -46 0 -50 25 -49 -830
-49 -832 0 -830 0 -830 40 0 7 35 43 79 79 80 67 169 183 225 295 97 191 103
470 16 710 -40 108 -50 129 -127 239 -95 137 -255 262 -399 312 -28 10 -64 25
-80 33 -16 8 -84 23 -149 32 -252 35 -538 -6 -738 -106 -186 -94 -365 -294
-428 -479 -56 -161 -58 -424 -4 -545 52 -119 100 -207 125 -227 38 -31 92 -20
196 41 94 54 144 93 144 111 0 6 -20 51 -45 100 -37 70 -48 105 -57 175 -30
220 37 354 233 469 63 36 323 90 394 81 249 -31 355 -74 464 -191 59 -64 74
-86 101 -162 26 -71 33 -107 37 -199 5 -103 4 -118 -22 -200 -34 -109 -50
-141 -111 -223 -136 -185 -302 -309 -487 -364 -70 -20 -89 -21 -759 -21 -776
-1 -714 6 -729 -82 -4 -26 -8 -94 -8 -151 -1 -96 1 -104 24 -127 l24 -25 2023
-2 c1113 -1 2046 0 2073 1 80 4 93 19 153 187 91 253 91 251 10 310 -177 127
-338 305 -422 465 -53 100 -72 150 -119 314 -7 25 -11 128 -11 275 l0 235 41
125 c46 142 83 221 158 335 147 223 304 359 525 454 222 95 344 121 555 121
208 -1 374 -22 463 -59 98 -41 220 -105 257 -135 24 -20 28 -27 18 -37 -7 -7
-77 -30 -155 -50 -281 -73 -421 -145 -608 -311 -264 -233 -392 -514 -421 -922
-21 -295 45 -660 159 -879 52 -99 183 -262 258 -320 27 -21 67 -52 89 -68 86
-66 240 -120 403 -141 166 -22 393 20 542 99 126 67 156 88 245 178 146 147
211 243 261 385 12 36 31 88 42 115 38 93 72 210 82 281 5 40 17 114 27 165
25 143 23 459 -5 604 -11 61 -23 128 -27 151 -3 22 -21 87 -40 145 -123 381
-250 583 -510 814 -236 211 -571 349 -895 369 -52 4 -120 8 -150 10 -30 2
-100 0 -155 -4z m1172 -939 c69 -43 152 -227 195 -436 29 -145 30 -159 31
-410 0 -210 -3 -276 -17 -340 -10 -44 -24 -111 -32 -149 -20 -103 -99 -284
-156 -361 -13 -16 -40 -54 -62 -83 -106 -143 -317 -219 -533 -192 -176 23
-331 141 -416 320 -69 146 -106 281 -119 441 -26 313 35 587 176 793 51 74
232 237 306 275 238 123 544 192 627 142z"></path>
</g>
</svg>