 <svg version="1.0" xmlns="http://www.w3.org/2000/svg" width="700.000000pt" height="700.000000pt" viewBox="0 0 700.000000 700.000000" preserveAspectRatio="xMidYMid meet">
<metadata>
Created by potrace 1.12, written by Peter Selinger 2001-2015
</metadata>
<g transform="translate(0.000000,700.000000) scale(0.100000,-0.100000)" fill="#000000" stroke="none">
<path d="M2035 5005 c-196 -27 -240 -36 -339 -67 -107 -32 -297 -109 -357
-143 -62 -35 -214 -171 -264 -235 -61 -79 -127 -213 -160 -325 -34 -117 -44
-281 -22 -375 43 -187 96 -310 175 -409 40 -49 139 -126 192 -149 102 -44 205
-64 355 -69 205 -7 298 5 410 52 79 34 99 48 170 120 143 145 190 261 189 465
-1 109 -23 209 -65 292 -49 97 -152 177 -288 224 -95 34 -97 34 -222 28 -150
-8 -179 -3 -179 30 0 41 62 78 200 119 305 89 594 91 828 6 155 -55 308 -188
382 -330 33 -63 48 -110 67 -203 21 -108 24 -151 27 -411 3 -302 6 -323 47
-345 11 -7 88 -12 179 -13 158 -2 160 -2 184 23 l25 25 4 260 4 260 32 80 c82
207 176 338 324 449 69 51 257 140 367 173 89 26 107 28 270 28 164 0 183 -2
300 -32 141 -37 278 -99 358 -162 125 -99 204 -248 224 -422 24 -218 -26 -376
-166 -515 -61 -60 -89 -79 -196 -131 -184 -89 -413 -150 -671 -178 -121 -13
-311 -16 -1080 -19 -1063 -5 -1313 -13 -1537 -50 -383 -64 -544 -127 -689
-269 -103 -100 -156 -187 -193 -318 -42 -146 -47 -254 -21 -412 25 -145 43
-201 96 -307 82 -164 185 -278 346 -385 184 -123 402 -181 639 -172 117 5 158
11 310 51 292 75 479 147 843 325 126 61 230 111 233 111 11 0 227 97 326 146
60 30 154 73 210 95 57 23 115 50 130 61 34 24 186 85 243 98 84 19 96 -4 59
-116 -23 -71 -25 -90 -22 -194 4 -106 7 -122 42 -202 32 -73 49 -97 109 -155
85 -82 116 -101 230 -148 139 -55 284 -79 452 -72 161 7 253 24 380 73 273
106 397 280 422 594 16 209 -96 429 -281 550 -68 45 -263 112 -381 130 -120
19 -440 4 -640 -31 -306 -53 -518 -111 -805 -219 -47 -18 -175 -63 -285 -100
-111 -38 -254 -93 -318 -124 -65 -31 -120 -56 -122 -56 -2 0 -113 -46 -247
-103 -306 -130 -329 -139 -463 -181 -269 -84 -477 -95 -640 -33 -70 26 -90 40
-157 107 -101 101 -138 175 -145 293 -8 121 11 214 56 284 70 109 190 194 318
227 233 60 368 66 1525 65 1130 0 1301 7 1537 66 53 13 125 29 161 36 43 8
110 35 199 81 323 166 515 352 606 587 38 99 85 366 85 485 0 102 -43 312 -79
390 -17 36 -31 68 -31 70 0 11 -75 122 -122 182 -54 69 -170 174 -256 232
-193 130 -528 222 -813 222 -142 0 -333 -28 -465 -69 -55 -16 -119 -35 -144
-41 -163 -43 -471 -263 -548 -392 -9 -15 -22 -30 -30 -33 -25 -9 -80 22 -98
56 -26 52 -211 230 -293 284 -80 53 -283 128 -446 166 -118 27 -440 35 -590
14z m-228 -871 c68 -39 130 -119 144 -183 31 -152 -32 -287 -162 -346 -58 -26
-69 -27 -163 -23 -107 6 -190 30 -242 70 -15 12 -41 51 -57 87 -42 91 -42 161
0 252 38 83 85 122 182 153 99 31 233 27 298 -10z m3450 -1939 c63 -19 143
-88 173 -149 44 -92 44 -229 1 -315 -26 -50 -111 -128 -169 -154 -36 -16 -73
-22 -156 -25 -101 -4 -113 -2 -179 24 -84 34 -166 104 -199 172 -19 38 -23 63
-23 137 0 81 3 95 28 138 16 26 41 63 57 81 35 39 133 93 192 106 59 13 212 4
275 -15z"></path>
</g>
</svg>