 <svg version="1.0" xmlns="http://www.w3.org/2000/svg" width="700.000000pt" height="700.000000pt" viewBox="0 0 700.000000 700.000000" preserveAspectRatio="xMidYMid meet">
<metadata>
Created by potrace 1.12, written by Peter Selinger 2001-2015
</metadata>
<g transform="translate(0.000000,700.000000) scale(0.100000,-0.100000)" fill="#000000" stroke="none">
<path d="M1235 4994 c-124 -24 -229 -49 -270 -65 -28 -10 -56 -19 -64 -19 -42
0 -172 -72 -345 -190 -95 -65 -264 -258 -331 -377 -8 -15 -20 -35 -25 -43 -5
-8 -28 -53 -51 -100 -50 -105 -86 -224 -105 -355 -8 -55 -22 -110 -30 -122
-20 -32 -20 -334 1 -366 8 -12 21 -67 30 -122 22 -140 84 -328 139 -425 14
-25 33 -58 42 -75 80 -146 265 -341 395 -418 75 -45 119 -49 139 -12 7 14 17
25 21 25 7 0 102 125 125 164 18 31 4 57 -40 76 -83 36 -238 168 -291 249 -13
20 -38 55 -55 79 -70 99 -120 221 -156 380 -20 88 -24 134 -24 265 0 230 35
383 127 554 86 159 238 334 351 402 100 59 342 161 385 161 13 0 47 7 77 16
45 13 74 14 191 6 202 -15 214 -28 123 -133 -79 -91 -102 -127 -176 -279 -167
-343 -218 -695 -154 -1070 29 -171 40 -210 98 -353 66 -163 122 -252 223 -353
94 -95 147 -129 281 -179 170 -64 413 -11 579 128 126 105 213 235 274 410 11
28 24 66 29 82 50 138 56 174 72 384 22 295 -4 516 -87 741 -78 213 -171 380
-267 480 -62 66 -81 97 -67 114 28 33 300 38 399 7 104 -32 253 -129 314 -203
101 -125 138 -194 170 -323 18 -72 20 -119 23 -490 3 -496 11 -579 73 -785 59
-197 226 -396 412 -490 145 -74 350 -98 505 -60 44 11 88 20 98 20 23 0 220
103 260 136 129 107 239 238 258 310 10 33 43 54 59 37 5 -4 27 -44 50 -87 97
-185 271 -334 455 -389 135 -41 203 -49 342 -44 274 9 515 96 703 253 186 153
264 272 353 534 75 219 97 516 58 780 -25 165 -31 194 -71 305 -64 179 -111
274 -174 353 -8 9 -38 46 -66 82 -108 134 -258 265 -392 340 -40 22 -81 46
-91 53 -16 10 -22 8 -43 -18 -13 -16 -43 -68 -66 -115 -22 -47 -47 -93 -56
-102 -21 -25 -10 -43 55 -85 243 -155 372 -289 470 -488 19 -38 40 -81 48 -95
18 -35 51 -161 64 -246 49 -325 -1 -639 -136 -851 -55 -86 -127 -166 -186
-207 -32 -22 -57 -42 -57 -46 0 -11 -96 -60 -172 -87 -63 -22 -94 -27 -223
-30 -147 -5 -153 -4 -242 25 -89 30 -105 39 -211 116 -66 48 -184 190 -238
287 -22 41 -53 111 -67 157 l-27 83 0 798 c0 606 -3 800 -12 809 -15 15 -271
17 -298 2 -19 -10 -20 -34 -19 -830 0 -450 -3 -843 -7 -872 -13 -113 -81 -273
-153 -363 -88 -110 -146 -150 -284 -195 -94 -31 -255 -26 -337 12 -133 60
-228 203 -286 428 -24 93 -24 103 -24 515 -1 555 -14 655 -113 853 -78 157
-187 299 -287 374 -61 45 -182 104 -277 133 -119 37 -228 48 -403 42 -160 -6
-300 -33 -458 -88 l-64 -22 -71 22 c-160 49 -252 71 -335 81 -83 9 -344 12
-387 4z m842 -553 c79 -66 109 -100 188 -210 210 -293 288 -638 224 -990 -43
-238 -109 -392 -223 -517 -65 -73 -136 -105 -234 -106 -71 -1 -85 2 -133 30
-74 42 -128 102 -183 199 -25 45 -46 86 -46 91 0 5 -11 36 -25 69 -13 33 -36
111 -51 174 -25 103 -28 132 -28 314 -1 173 2 215 22 310 13 61 34 134 48 164
13 29 24 58 24 65 0 14 64 139 98 192 97 149 123 182 185 232 22 17 48 32 58
32 10 0 44 -22 76 -49z"></path>
</g>
</svg>