<?xml version="1.0" standalone="no"?>
<!DOCTYPE svg PUBLIC "-//W3C//DTD SVG 20010904//EN"
 "http://www.w3.org/TR/2001/REC-SVG-20010904/DTD/svg10.dtd">
<svg version="1.0" xmlns="http://www.w3.org/2000/svg"
 width="99.000000pt" height="49.000000pt" viewBox="0 0 99.000000 49.000000"
 preserveAspectRatio="xMidYMid meet">

<g transform="translate(0.000000,49.000000) scale(0.100000,-0.100000)"
fill="#000000" stroke="none">
<path d="M203 413 c-53 -18 -118 -88 -133 -143 -19 -70 17 -182 74 -230 15
-12 22 -11 52 5 l34 18 -35 34 c-39 38 -60 100 -50 150 8 43 60 100 100 109
l30 7 -22 -24 c-29 -32 -53 -91 -53 -129 0 -72 58 -153 121 -170 117 -32 222
58 175 149 -12 23 -14 36 -6 50 13 25 13 88 0 96 -5 3 -10 10 -10 16 0 17 28
9 57 -15 28 -24 28 -25 31 -160 l4 -136 39 0 39 0 0 126 0 126 30 29 c26 27
35 30 81 27 31 -2 54 -8 57 -15 2 -7 -3 -13 -12 -13 -21 0 -84 -57 -103 -93
-22 -43 -13 -120 17 -152 53 -56 154 -54 203 5 30 35 50 119 41 169 -27 148
-185 225 -310 152 -32 -19 -32 -19 -78 4 -42 21 -58 23 -189 23 -92 -1 -157
-6 -184 -15z m197 -93 c11 -11 20 -24 20 -29 0 -20 -33 -41 -66 -41 -32 0 -34
-2 -34 -35 0 -32 2 -35 31 -35 66 0 96 -50 42 -71 -63 -24 -122 45 -107 126 7
37 58 105 80 105 8 0 23 -9 34 -20z m480 -116 c0 -45 -4 -59 -25 -79 -13 -14
-29 -25 -35 -25 -19 0 -50 40 -50 64 0 42 76 115 103 99 4 -2 7 -29 7 -59z"/>
</g>
</svg>
