<?xml version="1.0" standalone="no"?>
<!DOCTYPE svg PUBLIC "-//W3C//DTD SVG 20010904//EN"
 "http://www.w3.org/TR/2001/REC-SVG-20010904/DTD/svg10.dtd">
<svg version="1.0" xmlns="http://www.w3.org/2000/svg"
 width="105.000000pt" height="54.000000pt" viewBox="0 0 105.000000 54.000000"
 preserveAspectRatio="xMidYMid meet">

<g transform="translate(0.000000,54.000000) scale(0.100000,-0.100000)"
fill="#000000" stroke="none">
<path d="M397 523 c-4 -3 -52 -6 -107 -5 -120 2 -165 -13 -215 -71 -76 -88
-69 -203 18 -294 30 -32 31 -32 59 -15 34 20 35 23 2 53 -78 72 -69 196 18
249 52 32 60 24 25 -26 -28 -40 -32 -53 -32 -112 0 -55 4 -73 24 -101 44 -61
135 -86 206 -57 61 26 86 97 52 150 -13 19 -13 25 -1 41 19 26 18 70 -3 102
l-17 26 29 -7 c17 -4 36 -13 44 -21 20 -19 30 -87 31 -197 0 -80 3 -98 15 -99
65 -5 60 -17 65 130 5 130 5 133 33 157 20 17 40 24 70 24 44 0 82 -17 60 -26
-32 -14 -80 -53 -100 -83 -45 -67 -23 -170 42 -197 106 -44 205 28 205 149 0
60 15 60 42 1 15 -35 18 -57 14 -87 -19 -114 -109 -159 -242 -121 -17 5 -24 0
-32 -26 -13 -36 -10 -39 71 -49 116 -15 216 30 257 114 18 38 21 59 18 119 -3
62 -8 79 -32 111 -17 22 -49 46 -80 60 -28 12 -60 33 -71 45 -54 61 -169 78
-248 36 -39 -21 -47 -23 -58 -10 -21 26 -145 55 -162 37z m-39 -103 c12 -12
22 -25 22 -30 0 -21 -41 -50 -70 -50 -27 0 -30 -3 -30 -30 0 -25 4 -30 24 -30
40 0 76 -18 76 -38 0 -27 -20 -42 -55 -42 -91 0 -113 147 -34 215 37 30 39 30
67 5z m482 -114 c0 -61 -27 -106 -64 -106 -32 0 -46 19 -46 61 0 30 7 43 35
68 20 17 45 31 55 31 17 0 20 -7 20 -54z"/>
</g>
</svg>
