<?xml version="1.0" standalone="no"?>
<!DOCTYPE svg PUBLIC "-//W3C//DTD SVG 20010904//EN"
 "http://www.w3.org/TR/2001/REC-SVG-20010904/DTD/svg10.dtd">
<svg version="1.0" xmlns="http://www.w3.org/2000/svg"
 width="120.000000pt" height="74.000000pt" viewBox="0 0 120.000000 74.000000"
 preserveAspectRatio="xMidYMid meet">
<metadata>
Created by potrace 1.16, written by Peter Selinger 2001-2019
</metadata>
<g transform="translate(0.000000,74.000000) scale(0.100000,-0.100000)"
fill="#000000" stroke="none">
<path d="M161 534 c-55 -28 -110 -98 -112 -143 -4 -92 18 -155 70 -205 l30
-28 31 22 31 22 -26 20 c-86 68 -78 211 15 258 49 25 62 19 32 -13 -28 -30
-52 -89 -52 -130 0 -42 37 -115 72 -141 39 -28 125 -33 173 -11 51 25 74 74
56 118 -8 18 -13 42 -12 55 5 66 4 109 -3 125 -8 17 -6 17 25 4 51 -20 59 -45
59 -189 l0 -128 40 0 40 0 0 126 0 126 34 34 c37 37 71 43 123 23 l28 -11 -36
-18 c-43 -23 -96 -81 -105 -115 -11 -43 6 -97 41 -132 28 -28 40 -33 80 -33
59 0 101 24 126 72 28 55 33 108 15 169 -36 126 -173 184 -291 125 l-48 -25
-29 22 c-27 20 -42 22 -193 24 -156 2 -166 1 -214 -23z m231 -89 c15 -34 -12
-65 -59 -65 -30 0 -33 -3 -33 -28 0 -26 4 -29 48 -38 39 -7 48 -13 50 -33 4
-28 -12 -41 -55 -41 -60 0 -98 84 -70 152 31 74 96 103 119 53z"/>
<path d="M1050 507 c-35 -17 -40 -69 -8 -91 32 -23 89 -20 116 4 29 28 28 54
-4 79 -30 24 -67 27 -104 8z"/>
<path d="M1050 297 c-35 -17 -40 -69 -8 -91 32 -23 93 -21 118 4 27 27 25 55
-6 79 -30 24 -67 27 -104 8z"/>
</g>
</svg>
