<?xml version="1.0" standalone="no"?>
<!DOCTYPE svg PUBLIC "-//W3C//DTD SVG 20010904//EN"
 "http://www.w3.org/TR/2001/REC-SVG-20010904/DTD/svg10.dtd">
<svg version="1.0" xmlns="http://www.w3.org/2000/svg"
 width="134.000000pt" height="86.000000pt" viewBox="0 0 134.000000 86.000000"
 preserveAspectRatio="xMidYMid meet">
<metadata>
Created by potrace 1.16, written by Peter Selinger 2001-2019
</metadata>
<g transform="translate(0.000000,86.000000) scale(0.100000,-0.100000)"
fill="#000000" stroke="none">
<path d="M205 641 c-74 -19 -121 -59 -154 -131 -26 -58 -26 -122 -1 -176 25
-51 55 -72 113 -80 85 -12 147 40 147 123 0 74 -59 119 -142 110 l-48 -6 14
28 c29 54 98 82 158 62 105 -35 129 -163 47 -256 l-29 -33 25 -16 c13 -9 28
-16 33 -16 16 0 71 65 86 102 20 46 21 128 2 171 -14 35 -75 93 -110 106 -35
14 -109 20 -141 12z"/>
<path d="M1034 631 c-74 -34 -122 -118 -131 -232 -5 -63 -8 -69 -28 -69 -21 0
-23 4 -19 38 13 101 -102 183 -215 152 -118 -31 -163 -156 -85 -234 32 -32 41
-32 70 -5 l23 22 -30 28 c-25 24 -30 34 -25 57 4 15 19 38 33 51 44 39 123 19
144 -36 11 -30 -4 -69 -30 -78 -15 -4 -21 -15 -21 -36 l0 -29 88 0 88 0 12
-46 c15 -56 47 -89 100 -103 55 -15 109 3 139 48 22 32 23 43 23 217 l0 184
-40 0 -40 0 0 -115 0 -115 -56 0 -57 0 7 61 c7 69 33 135 64 163 12 10 41 21
65 23 95 11 147 -54 155 -194 6 -115 -4 -167 -38 -207 l-29 -33 22 -22 c30
-27 38 -27 69 7 45 47 48 63 48 225 l0 155 -32 48 c-60 88 -175 120 -274 75z"/>
</g>
</svg>
