<?xml version="1.0" standalone="no"?>
<!DOCTYPE svg PUBLIC "-//W3C//DTD SVG 20010904//EN"
 "http://www.w3.org/TR/2001/REC-SVG-20010904/DTD/svg10.dtd">
<svg version="1.0" xmlns="http://www.w3.org/2000/svg"
 width="113.000000pt" height="67.000000pt" viewBox="0 0 113.000000 67.000000"
 preserveAspectRatio="xMidYMid meet">
<metadata>
Created by potrace 1.16, written by Peter Selinger 2001-2019
</metadata>
<g transform="translate(0.000000,67.000000) scale(0.100000,-0.100000)"
fill="#000000" stroke="none">
<path d="M235 551 c-177 -30 -238 -230 -112 -368 25 -27 44 -29 75 -5 l23 18
-30 21 c-37 28 -66 109 -56 155 10 44 40 85 75 103 47 24 51 18 18 -30 -106
-150 32 -337 200 -270 63 26 90 95 56 144 -13 18 -14 28 -5 47 14 31 14 91 1
99 -5 3 -10 11 -10 16 0 15 41 0 65 -22 18 -17 20 -35 23 -154 l4 -135 39 0
39 0 0 115 c0 128 10 163 55 183 14 7 40 12 58 12 36 0 70 -18 50 -26 -28 -12
-78 -51 -97 -77 -16 -21 -21 -43 -21 -88 0 -53 3 -62 33 -91 29 -30 38 -33 91
-33 50 0 64 4 86 25 43 40 59 79 59 151 1 56 -3 72 -29 115 -58 92 -176 125
-274 75 l-42 -22 -37 23 c-37 23 -67 25 -214 18 -25 -1 -55 0 -65 3 -10 2 -36
1 -58 -2z m155 -101 c11 -11 20 -24 20 -29 0 -18 -31 -40 -65 -47 -30 -5 -35
-10 -35 -35 0 -26 3 -29 33 -29 67 0 91 -54 34 -74 -65 -23 -122 56 -98 136
13 41 59 98 80 98 6 0 20 -9 31 -20z"/>
<path d="M1012 258 c-24 -12 -38 -48 -28 -73 3 -9 22 -23 41 -31 31 -12 39
-12 70 0 32 14 35 19 35 56 0 34 -4 42 -26 50 -32 13 -63 12 -92 -2z"/>
</g>
</svg>
