<?xml version="1.0" standalone="no"?>
<!DOCTYPE svg PUBLIC "-//W3C//DTD SVG 20010904//EN"
 "http://www.w3.org/TR/2001/REC-SVG-20010904/DTD/svg10.dtd">
<svg version="1.0" xmlns="http://www.w3.org/2000/svg"
 width="115.000000pt" height="68.000000pt" viewBox="0 0 115.000000 68.000000"
 preserveAspectRatio="xMidYMid meet">
<metadata>
Created by potrace 1.16, written by Peter Selinger 2001-2019
</metadata>
<g transform="translate(0.000000,68.000000) scale(0.100000,-0.100000)"
fill="#000000" stroke="none">
<path d="M179 522 c-34 -17 -65 -44 -84 -71 -26 -37 -30 -53 -33 -119 -3 -84
13 -125 60 -156 47 -30 119 -24 162 14 40 36 52 76 36 123 -18 57 -53 82 -116
82 -30 0 -54 3 -54 7 0 3 13 20 30 36 38 38 105 54 178 42 63 -11 84 -25 80
-54 -2 -17 -13 -23 -55 -30 -52 -9 -53 -10 -53 -42 0 -34 1 -34 45 -34 36 0
47 -4 61 -25 15 -23 15 -27 -1 -51 -17 -26 -33 -28 -77 -9 -15 6 -18 1 -18
-33 0 -37 2 -40 33 -46 68 -13 127 16 148 71 14 36 11 65 -10 106 -16 31 -16
38 -5 48 8 6 14 29 14 51 0 32 -6 46 -31 69 -39 36 -85 49 -180 49 -65 0 -85
-4 -130 -28z"/>
<path d="M652 530 c-43 -26 -71 -90 -72 -157 l0 -53 39 0 39 0 4 60 c5 68 27
100 68 100 41 0 58 -27 62 -95 l3 -60 43 -3 42 -3 0 60 c0 48 4 65 20 81 22
22 70 26 102 9 26 -14 48 -68 48 -120 0 -87 -52 -139 -140 -139 -50 0 -78 14
-89 43 -7 18 -16 22 -47 22 -36 -1 -39 -3 -36 -25 9 -66 81 -110 178 -110 95
1 176 50 204 125 19 49 14 148 -9 193 -33 65 -73 87 -157 87 -56 0 -76 -4 -92
-19 -21 -18 -22 -18 -48 3 -36 28 -116 29 -162 1z"/>
</g>
</svg>
