<?xml version="1.0" standalone="no"?>
<!DOCTYPE svg PUBLIC "-//W3C//DTD SVG 20010904//EN"
 "http://www.w3.org/TR/2001/REC-SVG-20010904/DTD/svg10.dtd">
<svg version="1.0" xmlns="http://www.w3.org/2000/svg"
 width="66.000000pt" height="55.000000pt" viewBox="0 0 66.000000 55.000000"
 preserveAspectRatio="xMidYMid meet">

<g transform="translate(0.000000,55.000000) scale(0.100000,-0.100000)"
fill="#000000" stroke="none">
<path d="M125 511 c-184 -83 -96 -344 90 -267 47 20 69 57 62 107 -6 49 -21
67 -72 90 l-40 19 48 0 c52 0 101 -20 111 -45 3 -9 6 -52 6 -96 l0 -79 40 0
40 0 0 84 c0 69 4 88 21 110 37 47 109 31 135 -29 28 -67 8 -136 -49 -170 -28
-17 -58 -20 -224 -25 -173 -5 -194 -7 -219 -26 -56 -42 -47 -125 18 -161 29
-16 64 -18 291 -21 l257 -3 0 39 0 40 -252 1 c-138 0 -256 5 -261 10 -5 5 -7
17 -5 27 3 17 18 19 188 24 178 5 188 7 243 33 81 40 111 92 105 186 -3 56 -9
75 -32 106 -52 67 -152 86 -218 41 l-35 -23 -39 23 c-50 30 -149 33 -209 5z
m71 -156 c9 -36 -2 -55 -30 -55 -41 0 -56 11 -56 39 0 36 6 41 46 41 27 0 35
-5 40 -25z"/>
</g>
</svg>
