<?xml version="1.0" standalone="no"?>
<!DOCTYPE svg PUBLIC "-//W3C//DTD SVG 20010904//EN"
 "http://www.w3.org/TR/2001/REC-SVG-20010904/DTD/svg10.dtd">
<svg version="1.0" xmlns="http://www.w3.org/2000/svg"
 width="129.000000pt" height="58.000000pt" viewBox="0 0 129.000000 58.000000"
 preserveAspectRatio="xMidYMid meet">

<g transform="translate(0.000000,58.000000) scale(0.100000,-0.100000)"
fill="#000000" stroke="none">
<path d="M168 534 c-149 -46 -174 -247 -35 -285 51 -13 108 1 143 36 55 55 10
173 -66 175 -22 1 -23 2 -7 11 27 16 96 0 124 -27 20 -20 23 -33 23 -102 0
-43 2 -81 5 -83 2 -3 20 -3 40 -1 l35 4 0 78 c0 63 4 82 21 104 29 37 89 37
118 0 45 -57 34 -146 -22 -188 -26 -19 -45 -21 -220 -26 -218 -6 -247 -14
-267 -74 -9 -27 -8 -41 4 -69 26 -64 43 -67 336 -67 l260 0 0 35 0 35 -241 0
c-241 0 -279 5 -279 36 0 26 48 34 209 34 175 0 224 10 274 58 44 41 60 81 60
144 -1 70 -33 133 -83 162 -47 28 -125 27 -172 -1 l-36 -21 -48 24 c-54 27
-106 30 -176 8z m33 -144 c37 -20 18 -80 -26 -80 -43 0 -63 58 -27 79 22 13
29 13 53 1z"/>
<path d="M833 537 c-18 -7 -42 -22 -54 -33 -26 -27 -48 -106 -41 -156 4 -37 6
-38 44 -38 38 0 40 1 37 33 -4 64 1 88 26 112 13 14 31 25 40 25 9 0 27 -11
40 -25 21 -20 25 -34 25 -85 l0 -60 40 0 40 0 0 49 c0 96 37 134 107 110 44
-14 63 -53 63 -128 0 -49 -4 -65 -26 -90 -50 -60 -165 -64 -192 -8 -11 23 -20
27 -53 27 -45 0 -51 -16 -20 -66 26 -43 83 -68 156 -68 81 1 127 18 169 64 86
96 67 272 -36 327 -43 23 -137 22 -173 -1 -25 -16 -28 -16 -69 3 -47 23 -76
25 -123 8z"/>
</g>
</svg>
