<?xml version="1.0" standalone="no"?>
<!DOCTYPE svg PUBLIC "-//W3C//DTD SVG 20010904//EN"
 "http://www.w3.org/TR/2001/REC-SVG-20010904/DTD/svg10.dtd">
<svg version="1.0" xmlns="http://www.w3.org/2000/svg"
 width="91.000000pt" height="82.000000pt" viewBox="0 0 91.000000 82.000000"
 preserveAspectRatio="xMidYMid meet">
<metadata>
Created by potrace 1.16, written by Peter Selinger 2001-2019
</metadata>
<g transform="translate(0.000000,82.000000) scale(0.100000,-0.100000)"
fill="#000000" stroke="none">
<path d="M586 666 c-83 -31 -130 -103 -148 -226 -10 -71 -13 -80 -32 -80 -19
0 -21 5 -18 43 3 51 -23 98 -70 127 -43 26 -139 27 -188 2 -82 -41 -106 -142
-49 -207 36 -41 61 -44 82 -11 15 23 15 25 -8 40 -46 30 -30 105 25 125 42 14
87 4 110 -27 28 -35 25 -59 -10 -92 -16 -15 -30 -37 -30 -48 0 -18 8 -21 62
-27 35 -3 76 -4 92 -3 27 3 30 -1 38 -35 11 -51 33 -82 73 -101 42 -20 78 -20
119 -1 60 29 66 52 66 254 l0 181 -40 0 -40 0 0 -110 0 -110 -50 0 -50 0 0 51
c0 141 80 224 185 189 75 -25 112 -135 96 -283 -7 -60 -15 -85 -36 -113 l-27
-35 22 -24 c21 -22 24 -23 46 -8 42 27 76 113 81 205 13 202 -62 322 -211 334
-30 3 -67 -2 -90 -10z"/>
</g>
</svg>
