<?xml version="1.0" standalone="no"?>
<!DOCTYPE svg PUBLIC "-//W3C//DTD SVG 20010904//EN"
 "http://www.w3.org/TR/2001/REC-SVG-20010904/DTD/svg10.dtd">
<svg version="1.0" xmlns="http://www.w3.org/2000/svg"
 width="100.000000pt" height="79.000000pt" viewBox="0 0 100.000000 79.000000"
 preserveAspectRatio="xMidYMid meet">
<metadata>
Created by potrace 1.16, written by Peter Selinger 2001-2019
</metadata>
<g transform="translate(0.000000,79.000000) scale(0.100000,-0.100000)"
fill="#000000" stroke="none">
<path d="M604 615 c-83 -41 -134 -136 -134 -247 0 -45 -2 -48 -25 -48 -23 0
-25 4 -25 48 -1 26 -6 57 -13 69 -44 79 -185 101 -267 43 -67 -47 -75 -143
-18 -200 36 -37 53 -38 74 -5 16 24 15 26 -10 46 -44 34 -32 96 23 119 63 26
131 -10 131 -70 0 -30 -8 -44 -36 -58 -13 -7 -21 -21 -21 -37 0 -25 0 -25 93
-25 83 0 94 -2 94 -17 1 -37 39 -102 69 -117 35 -19 100 -21 135 -4 44 20 60
55 64 149 l4 85 32 -4 c42 -6 56 -27 56 -85 0 -71 -13 -90 -56 -82 -33 6 -34
5 -34 -29 0 -30 4 -35 30 -41 63 -14 116 16 139 78 17 44 13 119 -8 161 -19
37 -19 38 1 72 15 26 19 45 15 76 -11 84 -84 138 -196 145 -57 4 -73 1 -117
-22z m176 -63 c46 -22 64 -59 49 -101 -8 -21 -19 -33 -37 -37 -15 -3 -32 -7
-39 -9 -9 -3 -13 17 -15 68 l-3 72 -35 0 -35 0 -5 -110 -5 -110 -54 -3 -54 -3
5 69 c6 78 34 138 76 165 35 22 108 21 152 -1z"/>
</g>
</svg>
