<?xml version="1.0" standalone="no"?>
<!DOCTYPE svg PUBLIC "-//W3C//DTD SVG 20010904//EN"
 "http://www.w3.org/TR/2001/REC-SVG-20010904/DTD/svg10.dtd">
<svg version="1.0" xmlns="http://www.w3.org/2000/svg"
 width="86.000000pt" height="87.000000pt" viewBox="0 0 86.000000 87.000000"
 preserveAspectRatio="xMidYMid meet">
<metadata>
Created by potrace 1.16, written by Peter Selinger 2001-2019
</metadata>
<g transform="translate(0.000000,87.000000) scale(0.100000,-0.100000)"
fill="#000000" stroke="none">
<path d="M373 581 c-58 -15 -122 -60 -147 -104 -94 -159 21 -341 170 -271 42
20 64 59 64 115 0 33 -6 47 -34 75 -30 30 -40 34 -85 34 -28 0 -51 4 -51 8 0
14 54 60 83 71 62 24 179 5 201 -32 15 -25 -16 -47 -66 -47 -38 0 -38 0 -38
-39 l0 -40 46 -3 c54 -3 70 -21 60 -63 -7 -26 -9 -27 -52 -22 l-45 5 3 -37 c3
-35 4 -36 47 -39 51 -4 96 12 116 42 19 26 19 115 1 142 -12 17 -12 22 0 39
19 25 18 75 -2 103 -37 53 -180 86 -271 63z"/>
</g>
</svg>
