<?xml version="1.0" standalone="no"?>
<!DOCTYPE svg PUBLIC "-//W3C//DTD SVG 20010904//EN"
 "http://www.w3.org/TR/2001/REC-SVG-20010904/DTD/svg10.dtd">
<svg version="1.0" xmlns="http://www.w3.org/2000/svg"
 width="92.000000pt" height="79.000000pt" viewBox="0 0 92.000000 79.000000"
 preserveAspectRatio="xMidYMid meet">
<metadata>
Created by potrace 1.16, written by Peter Selinger 2001-2019
</metadata>
<g transform="translate(0.000000,79.000000) scale(0.100000,-0.100000)"
fill="#000000" stroke="none">
<path d="M218 591 c-129 -42 -200 -162 -167 -283 29 -110 162 -142 234 -57 69
83 -10 212 -119 192 -30 -6 -33 3 -8 33 29 36 76 54 144 54 67 0 104 -13 122
-43 15 -25 -16 -47 -66 -47 -37 0 -38 -1 -38 -35 0 -32 2 -35 29 -35 54 0 81
-16 81 -49 0 -39 -22 -55 -65 -48 -34 6 -35 5 -35 -28 0 -35 12 -45 59 -45 47
0 91 21 106 51 20 37 19 109 -1 137 -14 20 -14 24 0 44 35 49 12 104 -56 139
-46 23 -174 35 -220 20z"/>
<path d="M660 578 c-48 -25 -75 -62 -85 -120 l-7 -38 41 0 c35 0 41 3 41 20 0
29 26 76 45 84 32 12 64 6 90 -17 54 -46 41 -201 -19 -228 -47 -22 -102 8
-113 62 -5 25 -10 29 -39 29 -41 0 -46 -7 -33 -56 22 -80 103 -125 189 -105
89 20 121 66 128 181 3 65 0 81 -20 120 -27 50 -90 90 -143 90 -17 0 -51 -10
-75 -22z"/>
</g>
</svg>
