<?xml version="1.0" standalone="no"?>
<!DOCTYPE svg PUBLIC "-//W3C//DTD SVG 20010904//EN"
 "http://www.w3.org/TR/2001/REC-SVG-20010904/DTD/svg10.dtd">
<svg version="1.0" xmlns="http://www.w3.org/2000/svg"
 width="85.000000pt" height="94.000000pt" viewBox="0 0 85.000000 94.000000"
 preserveAspectRatio="xMidYMid meet">

<g transform="translate(0.000000,94.000000) scale(0.100000,-0.100000)"
fill="#000000" stroke="none">
<path d="M230 692 c-47 -24 -73 -71 -73 -137 0 -57 25 -110 63 -133 21 -13 21
-13 -9 -41 -60 -56 -47 -132 29 -171 58 -30 187 -43 288 -31 132 17 192 58
192 132 0 31 -6 43 -35 67 l-36 29 25 17 c37 23 59 73 59 131 1 94 -55 155
-143 155 -91 0 -149 -76 -116 -153 19 -46 48 -67 103 -76 l48 -8 -40 -19 c-57
-26 -223 -26 -280 1 l-40 18 45 7 c58 8 86 24 105 60 19 37 19 64 0 104 -30
62 -113 84 -185 48z m107 -68 c15 -24 15 -29 2 -53 -27 -48 -89 -31 -89 24 0
53 58 73 87 29z m282 12 c17 -20 10 -77 -11 -90 -23 -14 -50 2 -62 37 -17 47
43 89 73 53z m-18 -296 c50 -27 46 -51 -13 -75 -55 -22 -230 -23 -282 -1 -66
27 -55 71 21 87 55 12 245 4 274 -11z"/>
</g>
</svg>
