<?xml version="1.0" standalone="no"?>
<!DOCTYPE svg PUBLIC "-//W3C//DTD SVG 20010904//EN"
 "http://www.w3.org/TR/2001/REC-SVG-20010904/DTD/svg10.dtd">
<svg version="1.0" xmlns="http://www.w3.org/2000/svg"
 width="69.000000pt" height="62.000000pt" viewBox="0 0 69.000000 62.000000"
 preserveAspectRatio="xMidYMid meet">

<g transform="translate(0.000000,62.000000) scale(0.100000,-0.100000)"
fill="#000000" stroke="none">
<path d="M299 540 c-105 -18 -169 -82 -169 -170 0 -100 96 -157 194 -116 71
30 90 114 37 167 -16 16 -39 29 -50 29 -37 0 -32 18 7 25 57 9 128 -12 157
-47 20 -24 25 -41 25 -85 0 -47 -4 -59 -29 -84 -28 -28 -33 -29 -123 -29 -112
0 -160 -12 -188 -47 -26 -34 -26 -92 0 -126 28 -35 77 -43 263 -39 l158 3 -3
32 -3 32 -164 3 c-180 3 -207 10 -182 51 6 9 39 15 107 18 55 2 113 9 131 14
101 32 151 152 104 254 -41 90 -148 135 -272 115z m-8 -159 c21 -16 22 -22 11
-45 -8 -19 -19 -26 -40 -26 -52 0 -70 46 -30 74 28 20 31 20 59 -3z"/>
</g>
</svg>
