<?xml version="1.0" standalone="no"?>
<!DOCTYPE svg PUBLIC "-//W3C//DTD SVG 20010904//EN"
 "http://www.w3.org/TR/2001/REC-SVG-20010904/DTD/svg10.dtd">
<svg version="1.0" xmlns="http://www.w3.org/2000/svg"
 width="114.000000pt" height="61.000000pt" viewBox="0 0 114.000000 61.000000"
 preserveAspectRatio="xMidYMid meet">

<g transform="translate(0.000000,61.000000) scale(0.100000,-0.100000)"
fill="#000000" stroke="none">
<path d="M178 536 c-90 -33 -128 -81 -128 -162 0 -87 54 -131 151 -122 37 4
57 12 79 33 58 56 29 156 -50 171 -46 10 -25 24 36 24 96 0 154 -48 154 -127
0 -58 -22 -98 -61 -112 -18 -6 -72 -11 -120 -11 -97 0 -127 -8 -158 -41 -30
-32 -29 -98 2 -127 38 -36 73 -42 243 -42 l164 0 0 35 0 35 -158 0 c-122 0
-163 3 -178 14 -15 12 -17 18 -8 33 9 15 30 19 120 24 121 6 154 18 202 73 74
85 43 234 -61 287 -53 28 -174 36 -229 15z m42 -157 c13 -24 -10 -69 -36 -69
-45 0 -71 49 -42 78 20 20 66 15 78 -9z"/>
<path d="M650 533 c-55 -29 -80 -75 -80 -149 l0 -64 40 0 c38 0 39 1 34 28 -8
39 13 110 36 122 29 16 58 12 80 -10 16 -16 20 -33 20 -80 l0 -60 40 0 40 0 0
51 c0 78 21 109 77 109 68 0 111 -76 93 -168 -11 -62 -45 -94 -109 -100 -67
-6 -99 3 -113 33 -9 20 -18 25 -50 25 -31 0 -38 -4 -38 -20 0 -30 57 -88 98
-100 78 -21 166 -9 225 32 62 44 92 158 63 245 -19 57 -45 85 -98 108 -50 20
-94 19 -147 -5 -41 -19 -45 -19 -62 -4 -28 25 -107 29 -149 7z"/>
</g>
</svg>
