<?xml version="1.0" standalone="no"?>
<!DOCTYPE svg PUBLIC "-//W3C//DTD SVG 20010904//EN"
 "http://www.w3.org/TR/2001/REC-SVG-20010904/DTD/svg10.dtd">
<svg version="1.0" xmlns="http://www.w3.org/2000/svg"
 width="460.000000pt" height="681.000000pt" viewBox="0 0 460.000000 681.000000"
 preserveAspectRatio="xMidYMid meet">
<metadata>
Created by potrace 1.16, written by Peter Selinger 2001-2019
</metadata>
<g transform="translate(0.000000,681.000000) scale(0.100000,-0.100000)"
fill="#000000" stroke="none">
<path d="M700 6291 c-19 -10 -48 -35 -65 -55 l-30 -38 0 -2572 0 -2573 29 -37
c16 -21 47 -47 70 -57 39 -18 100 -19 1644 -19 1581 0 1603 0 1642 20 21 11
51 36 67 57 l28 36 3 2546 c1 1400 0 2561 -3 2579 -7 40 -59 101 -102 118 -27
12 -312 14 -1640 14 -1547 0 -1610 -1 -1643 -19z m3270 -69 c14 -11 33 -34 42
-53 16 -32 17 -201 18 -2542 0 -2696 3 -2545 -50 -2592 -22 -20 -36 -20 -1635
-20 l-1613 0 -25 23 c-13 12 -28 37 -33 55 -5 19 -7 1053 -4 2559 l5 2527 23
23 c12 13 36 28 52 33 19 7 577 9 1612 7 1518 -2 1584 -3 1608 -20z"/>
<path d="M2265 5269 c-93 -3 -186 -11 -205 -16 -19 -6 -62 -19 -95 -29 -284
-85 -558 -326 -641 -564 -9 -25 -20 -53 -25 -62 -14 -27 -30 -186 -23 -226 21
-121 110 -214 232 -242 79 -18 166 7 226 64 48 47 65 76 97 163 78 220 168
359 264 409 72 37 132 49 252 48 71 0 127 -4 135 -11 7 -6 27 -14 43 -17 52
-12 137 -78 182 -141 29 -42 47 -82 59 -133 17 -68 17 -76 1 -143 -17 -69 -64
-153 -119 -209 -40 -41 -160 -153 -203 -189 -55 -46 -190 -177 -245 -237 -126
-136 -191 -308 -192 -509 -1 -100 2 -115 26 -165 27 -56 93 -118 138 -132 46
-13 178 -8 216 8 44 18 87 57 108 99 18 36 54 170 54 201 0 13 5 26 10 29 6 3
10 14 10 24 0 67 107 194 325 386 309 273 419 423 465 635 13 61 9 216 -9 293
-50 222 -222 437 -436 544 -139 70 -202 91 -345 113 -98 14 -132 16 -305 9z"/>
<path d="M2143 2710 c-106 -52 -163 -138 -171 -256 -9 -142 49 -245 173 -304
55 -26 74 -30 150 -30 71 0 95 4 138 25 63 29 119 81 145 132 69 134 44 283
-63 382 -70 65 -114 81 -220 81 -79 -1 -97 -4 -152 -30z"/>
</g>
</svg>
